<?xml version="1.0" standalone="no"?>
<!DOCTYPE svg PUBLIC "-//W3C//DTD SVG 1.0//EN" "http://www.w3.org/TR/2001/REC-SVG-20010904/DTD/svg10.dtd">
<svg xmlns="http://www.w3.org/2000/svg" xmlns:xlink="http://www.w3.org/1999/xlink" id="body_1" width="702" height="520">

<defs>
    <linearGradient transform="matrix(1 0 0 1 0 0)"  id="1" x1="619.93" y1="298.64" x2="619.93" y2="132.32">
        <stop stop-color="#808080" offset="0%"/>
        <stop stop-color="#808080" offset="100%"/>
    </linearGradient>
    <linearGradient transform="matrix(1 0 0 1 0 0)"  id="232" x1="855.68" y1="218.69" x2="855.68" y2="216.24">
        <stop stop-color="#808080" offset="0%"/>
        <stop stop-color="#808080" offset="100%"/>
    </linearGradient>
    <linearGradient transform="matrix(7.5497894E-08 0.99999994 -0.99999994 7.5497894E-08 1189.6499 -68.370056)"  id="465" x1="476.17" y1="658.02" x2="476.17" y2="395.19">
        <stop stop-color="#808080" offset="0%"/>
        <stop stop-color="#808080" offset="100%"/>
    </linearGradient>
    <linearGradient transform="matrix(7.5497894E-08 0.99999994 -0.99999994 7.5497894E-08 1211.6698 -75.55005)"  id="758" x1="476.5" y1="725.77" x2="476.5" y2="463.92">
        <stop stop-color="#808080" offset="0%"/>
        <stop stop-color="#808080" offset="100%"/>
    </linearGradient>
    <linearGradient transform="matrix(7.5497894E-08 0.99999994 -0.99999994 7.5497894E-08 1180.4098 -54.670044)"  id="1048" x1="456.74" y1="719.17" x2="456.74" y2="457.32">
        <stop stop-color="#808080" offset="0%"/>
        <stop stop-color="#808080" offset="100%"/>
    </linearGradient>
    <linearGradient transform="matrix(1 0 0 1 123.74 -187.29)"  id="1342" x1="450.43" y1="726.27" x2="450.43" y2="464.42">
        <stop stop-color="#808080" offset="0%"/>
        <stop stop-color="#808080" offset="100%"/>
    </linearGradient>
    <linearGradient transform="matrix(7.5497894E-08 0.99999994 -0.99999994 7.5497894E-08 1155.0299 -844.7801)"  id="1587" x1="1003.59" y1="245.51" x2="1003.59" y2="74.84">
        <stop stop-color="#808080" offset="0%"/>
        <stop stop-color="#808080" offset="100%"/>
    </linearGradient>
    <linearGradient transform="matrix(1 0 0 1 0 0)"  id="1881" x1="864.79" y1="849.53" x2="864.79" y2="427.42">
        <stop stop-color="#808080" offset="0%"/>
        <stop stop-color="#808080" offset="100%"/>
    </linearGradient>
</defs>

<g transform="matrix(0.619594 0 0 0.6197855 0 0)">
    <path d="M481.34 56.33C 444.16998 41.22 404.89 28.570002 364.78998 30.180002C 305.78998 32.500004 249.27997 67.96 221.51997 120.03C 197.99997 164.14 195.09998 215.85 184.96997 264.8C 172.48997 325.12 148.58997 382.44 123.04997 438.5C 109.32997 468.57 94.85997 499.37 92.60997 532.38C 89.47997 578.2 111.38997 623.87 145.73997 654.38C 180.08998 684.89 225.73997 700.94 271.50998 704.45C 295.87997 706.32 321.33997 704.59 342.99 693.25C 365.88998 681.25 382.58 659.56 405.57 647.74C 426.88 636.74 451.80002 635.24 475.72 636.67C 507.0507 638.5447 537.92365 645.10425 567.31 656.13C 600.74 668.69 631.83 686.87 665.19 699.6C 698.55 712.32996 735.82 719.44 769.92 708.81C 801.92 698.81 827.26 674.61 850.08997 650.06C 887.56177 609.7644 921.7383 566.5254 952.29 520.76C 972.88 489.92 992.04 457.38 1001.14996 421.43C 1018.55 352.71 994.6 275.16998 941.45996 228.23C 897.45996 189.34999 838.37 172.47 780.54 162.23C 727.81 152.89 666.83997 152.31 618.3 127.97C 572 104.72 529.88 76.07 481.33997 56.33L481.33997 56.33L481.34 56.33z" stroke="none" fill="#BBB8FA" fill-rule="nonzero" fill-opacity="0.09803922" />
    <path transform="matrix(1 0 0 1 -33.54 -30.43)"  d="M904.73 150.7C 890.44995 151.27 889.73 188.14 890.62 189.75C 891.51 191.36 887.38 208 887.38 208C 887.38 208 880.9 233.23 881.65 237.92C 882.4 242.61 878.16003 245.68 878.16003 245.68C 871.82 248.18 863.87006 256.24 861.76 258.44998L861.76 258.44998L861.23 259.02C 861.23 259.02 855.08997 263.02 854.01 264.59998C 852.93005 266.17996 850.01 264.91998 850.01 264.91998C 850.01 264.91998 841.71 264.12 840.63 264.43997C 839.89 264.65997 838.73 263.29996 838.07 262.43997C 837.76 262.02997 837.56 261.71997 837.56 261.71997L837.56 261.71997L837.31 254.27997C 836.99744 254.0415 836.66254 253.83386 836.31 253.65997C 836.48 252.81998 836.69 251.94997 836.95 251.05997C 840.681 249.23993 843.8294 246.4137 846.04004 242.89996C 846.28 242.51996 846.50006 242.12996 846.71 241.73996C 847.26276 242.12357 847.9284 242.31023 848.60004 242.26996C 848.8955 242.27806 849.19086 242.2512 849.48004 242.18996C 850.4121 241.93822 851.28314 241.49931 852.04004 240.89996C 854.1043 239.50714 855.75 237.578 856.80005 235.31996C 856.98425 234.88896 857.1347 234.44429 857.25006 233.98996C 857.10004 234.23996 856.94006 234.48996 856.7801 234.72997C 857.57324 232.59488 857.3791 230.21805 856.25006 228.23996C 855.47003 226.97997 854.25006 225.95996 853.75006 224.55997C 852.91003 222.14996 854.50006 219.65997 855.48004 217.29997C 856.428 215.1529 856.73694 212.77812 856.37006 210.45998C 855.9738 208.11308 854.6376 206.02928 852.67004 204.68997C 848.74005 202.13997 843.41003 203.53998 838.86005 202.30997C 837.2349 201.78258 835.6478 201.14441 834.11005 200.39996C 831.7734 199.39178 829.3364 198.63422 826.84 198.13997C 824.37006 197.64996 821.38 197.59998 819.84 199.52997C 819.4104 200.14267 819.02924 200.78795 818.7 201.45996C 817.69794 203.08348 816.0886 204.2392 814.23004 204.66997C 813.32294 204.84221 812.40314 204.93921 811.48004 204.95996C 811.56244 204.58443 811.56244 204.19548 811.48004 203.81996C 810.32007 200.01996 813.64 197.19997 817.96 195.49997C 822.28 193.79997 838.71 180.85997 840.62 177.78998C 842.52997 174.71999 855.9 165.08998 855.9 165.08998C 855.9 165.08998 875.9 159.42998 882.46 138.80998C 889.02 118.18999 851.08 153.20998 847.26 154.25998C 843.44 155.30998 837.97003 159.25998 837.97003 159.25998L837.97003 159.25998L813.64 173.32999C 809.0019 175.94731 804.61053 178.97974 800.52 182.38998C 794.63 187.47998 790.9 196.12999 790.9 196.12999C 790.9 196.12999 788.57 199.93 785.17004 205.43C 783.2948 208.56439 780.76355 211.25597 777.75006 213.31999L777.75006 213.31999L777.86005 213.12C 777.59 213.45 769.22003 224.01999 768.48004 228.64C 767.74005 233.26001 764.33 252.09 764.33 252.09C 764.33 252.09 761.33 266.88 759.27 269.79C 759.27 269.79 757.60004 278.28 756.61005 279.42C 755.62006 280.56003 751.61005 292.59003 752.29004 293.81003C 752.29004 293.81003 748.47003 302.14 749.14 305.29004L749.14 305.29004L742.25 321.79004C 742.25 321.79004 738.51 329.95004 738.76 334.72003C 738.88 337.03003 738.98 339.72003 739.05 341.92004L739.05 341.92004L739.05 343.92004C 738.68 344.54004 737.73 346.12006 736.74 348.03003C 735.32 350.81003 733.81 354.28003 733.89996 356.42004C 734.05994 360.18005 734.06995 369.36005 732.33997 372.73004L732.33997 372.73004L731.82996 372.53003C 731.22345 373.5353 730.8796 374.677 730.82996 375.85004L730.82996 375.85004L730.94995 375.91003C 730.94995 376.20004 730.8599 376.50003 730.82996 376.82004C 730.41 380.65002 731.01996 385.98004 730.05994 387.15002C 728.7299 388.77002 729.38995 424.67 729.38995 424.67C 729.38995 424.67 727.23 447.14 731.5499 461.38L731.5499 461.38L731.2199 472.53C 731.2199 472.53 731.0499 483.04 731.5499 484.53C 732.0499 486.02 732.2199 496.66 732.2199 496.66L732.2199 496.66L734.7099 514.45C 734.7099 514.45 731.3799 541.94 734.2099 548.73C 735.8495 552.47595 736.8629 556.4657 737.2099 560.54C 738.65045 561.3323 740.19086 561.9276 741.7899 562.31L741.7899 562.31L741.7899 563.31L741.1399 580.02997L741.1399 580.94995C 741.1399 580.94995 741.0599 581.38995 740.9999 582.11993L740.9999 582.11993L740.9999 582.5299C 740.995 582.56976 740.995 582.61005 740.9999 582.6499L740.9999 582.6499L740.9999 582.9999C 740.99493 583.08984 740.99493 583.17993 740.9999 583.2699C 741.0049 583.3498 741.0049 583.43 740.9999 583.5099L740.9999 583.5099L740.9999 586.48C 740.9999 586.64996 741.04987 586.81 741.0799 586.98C 741.0751 587.01984 741.0751 587.0601 741.0799 587.1C 741.0799 587.29 741.1499 587.47 741.1899 587.64996C 741.1899 587.82996 741.2699 588.00995 741.3199 588.18994C 741.3246 588.2097 741.3246 588.2302 741.3199 588.24994C 741.3199 588.33997 741.3699 588.43994 741.3999 588.52997C 741.3942 588.5731 741.3942 588.6168 741.3999 588.66C 741.3999 588.76996 741.4699 588.87994 741.4999 589L741.4999 589L741.4999 589.08C 741.59985 589.36005 741.6999 589.64 741.8199 589.92004C 741.8161 589.94995 741.8161 589.9802 741.8199 590.0101C 741.8199 590.11005 741.9099 590.2201 741.9599 590.32007L741.9599 590.32007L742.0199 590.4601L742.1499 590.7301L742.2299 590.8801L742.36993 591.1301L742.45996 591.28015C 742.45996 591.36017 742.55 591.4401 742.6 591.52014C 742.64996 591.60016 742.67 591.6201 742.69995 591.6801L742.69995 591.6801L742.85 591.9101L742.95996 592.0601L743.11993 592.2901L743.2399 592.4401L743.4199 592.6601L743.5399 592.8001L743.74994 593.0401L743.8599 593.1601L744.19995 593.4901C 744.2316 593.5285 744.2687 593.5622 744.30994 593.5901C 744.3884 593.6719 744.4719 593.7487 744.55994 593.82007L744.55994 593.82007L744.7199 593.9501L744.9399 594.13007L745.1299 594.2701L745.34985 594.43005L745.5599 594.57007L745.77985 594.7101L746.0098 594.8401L746.2398 594.9801L746.4798 595.1001L746.7298 595.2201L746.9798 595.3401L747.2298 595.4501L747.4998 595.56006L747.76984 595.66003L748.04987 595.76L748.34985 595.85004L748.8198 595.99005L749.20984 596.09L749.51984 596.15L749.83984 596.22003L750.1799 596.22003L750.5099 596.27L754.73 596.27L755.26996 596.22003L755.6 596.22003L756.50995 596.12006C 756.50995 596.12006 767.83997 597.81006 768.20996 593.3301C 768.20996 593.1001 768.20996 592.8601 768.25995 592.6101L768.25995 592.6101L768.25995 592.0401C 768.25494 591.97015 768.25494 591.89996 768.25995 591.8301L768.25995 591.8301L768.25995 591.02L768.25995 589.72003L768.25995 588.38L768.25995 587.88L768.25995 586.45L768.25995 586.14C 768.18994 583.92004 768.07996 581.86 768.00995 580.71C 768.00995 580.10004 767.94995 579.71 767.94995 579.71C 767.94995 579.71 764.08997 573.89 764.72 571.71C 765.35 569.53 765.20996 562.13 765.20996 562.13C 765.20996 562.13 763.70996 558.58 762.69995 555.44C 762.61993 555.2 762.5499 554.96 762.48 554.73C 763.3179 553.77136 764.1056 552.77 764.83997 551.73C 766.27484 544.021 765.2898 536.05695 762.01996 528.93C 761.6368 528.6639 761.40875 528.2265 761.41 527.76C 761.4051 527.72015 761.4051 527.6799 761.41 527.64L761.41 527.64L763.33997 504.03003L762.17 490.29004C 762.17 490.29004 761.33997 480.90002 763.17 476.86005L763.17 476.86005L766.82 441.29004L772 420.6C 772 420.6 773.66 419.79 775 423.68C 776.34 427.56998 779.64 445.18 779.64 445.18L779.64 445.18L787.64 474.28998C 787.64 474.28998 788.97003 484.63998 790.13 486.09998C 791.29 487.55997 791.3 494.02 791.3 494.02C 791.3 494.02 793.79 499.19998 793.45996 501.46C 793.12994 503.72 793.45996 509.87 794.27997 511.97C 795.1 514.07 795.44995 528.97 795.44995 528.97C 794.49445 533.8428 794.60706 538.8648 795.77997 543.68994C 797.77997 551.12994 796.61 560.50995 796.61 560.50995C 796.8207 560.8346 797.0476 561.1483 797.29 561.44995C 797.20996 561.6699 797.12 561.88995 797.04 562.08997C 796.51996 563.43994 796.11 564.38995 796.11 564.38995C 796.11 564.38995 795.99 571.79 796.61 573.97C 797.23 576.14996 793.37 581.97 793.37 581.97C 793.37 581.97 793.37 582.32996 793.31 582.97C 793.24 584.12 793.13 586.17 793.06 588.39996L793.06 588.39996L793.06 594.1C 793.0553 594.1632 793.0553 594.2267 793.06 594.29L793.06 594.29L793.06 594.87C 793.06 595.06 793.06 595.36 793.11 595.58997C 793.49 600.06995 804.82 598.37994 804.82 598.37994L804.82 598.37994L805.73 598.4899L810.79 598.4899L811.13 598.42993L811.46 598.37994L811.78 598.30994L812.10004 598.24994L812.49005 598.14996L812.96 598.00995L813.25 597.9199L813.53 597.81995C 813.62213 597.79266 813.71234 597.7593 813.80005 597.72L813.80005 597.72L814.07007 597.61L814.3301 597.5L814.5801 597.39L814.8301 597.26L815.06006 597.14L815.30005 597.01L815.52 596.87L815.75 596.73L815.95 596.58997L816.17 596.43C 816.23737 596.38904 816.30096 596.34216 816.36 596.29C 816.4375 596.2389 816.511 596.18207 816.57996 596.12L816.57996 596.12L816.74994 595.98L816.99994 595.76L817.1099 595.65L817.44995 595.32L817.5499 595.2L817.7699 594.97003L817.8799 594.82C 817.9485 594.7514 818.01196 594.67786 818.0699 594.60004L818.0699 594.60004L818.1799 594.45L818.34985 594.22003L818.4498 594.07L818.6098 593.84C 818.63947 593.7845 818.67285 593.7311 818.7098 593.68005C 818.7098 593.60004 818.7998 593.5201 818.8498 593.44006L818.8498 593.44006L818.9398 593.29004C 818.9398 593.2 819.02985 593.12006 819.0698 593.04004C 819.1004 592.9922 819.1272 592.942 819.14984 592.89C 819.14984 592.8 819.23987 592.71 819.27985 592.62L819.27985 592.62L819.34985 592.48C 819.34985 592.38 819.4399 592.27997 819.48987 592.17L819.48987 592.17L819.48987 592.07996C 819.59985 591.7999 819.70984 591.51996 819.79987 591.2399L819.79987 591.2399L819.79987 591.1599C 819.79987 591.0499 819.8699 590.93994 819.90985 590.8299C 819.90546 590.7833 819.90546 590.73645 819.90985 590.6899C 819.90985 590.59985 819.90985 590.4999 819.98987 590.40985L819.98987 590.40985L819.98987 590.35986C 819.99457 590.3401 819.99457 590.3196 819.98987 590.29987C 819.98987 590.1199 820.08984 589.9399 820.1299 589.76984C 820.1299 589.58984 820.2099 589.40985 820.23987 589.22986L820.23987 589.22986L820.23987 589.09985C 820.23987 588.9299 820.29987 588.76984 820.3199 588.60986C 820.3399 588.4499 820.3199 588.4999 820.3199 588.4399L820.3199 588.4399L820.3199 588.10986L820.3199 587.85986L820.3199 587.6999L820.3199 587.1399L820.3199 585.3899C 820.31494 585.2999 820.31494 585.20984 820.3199 585.1199L820.3199 585.1199L820.3199 584.7699C 820.315 584.73004 820.315 584.68976 820.3199 584.6499L820.3199 584.6499L820.3199 584.2499C 820.2599 583.5199 820.1899 583.0799 820.1899 583.0799L820.1899 583.0799L820.1899 582.1699L819.5599 565.9899L819.5599 564.9899C 820.48987 564.4699 821.4399 563.87994 822.4299 563.18994C 822.4299 563.18994 822.2599 553.97 824.91986 550.25995C 827.57983 546.5499 823.58984 536.82996 823.58984 536.82996L823.58984 536.82996L821.9299 502.05997L822.58984 486.05997C 821.27203 483.6863 820.5835 481.0149 820.58984 478.29996C 820.3269 474.8312 819.4251 471.44092 817.9299 468.29996C 817.9299 468.29996 816.2699 462.79996 818.2699 461.17996C 820.2699 459.55997 816.1099 424.17996 816.1099 424.17996C 816.1099 424.17996 817.1099 398.32996 815.2099 382.97995L815.2099 382.97995L815.2099 382.72995L815.7399 382.48996C 815.57996 381.25995 815.4099 380.10995 815.2199 379.03995L815.2199 379.03995L814.6599 379.20996C 814.425 377.8539 814.0907 376.517 813.6599 375.20996L813.6599 375.20996L811 363C 811 363 810.94 362.36 810.87 361.43C 810.77997 360.33 810.68 358.84 810.66 357.53C 810.6514 356.97797 810.7119 356.42703 810.83997 355.88998L810.83997 355.88998L810.69995 355.77C 810.71277 355.4821 810.75977 355.19675 810.83997 354.91998L810.83997 354.91998L810.25995 354.43C 810.25995 354.43 810.17993 353.88 810.11993 353.03998C 809.9899 351.18 809.9199 347.93997 810.8399 346.11C 812.1699 343.43997 825.8399 333.33 825.8399 333.33L825.8399 333.33L833.5 318C 833.5 318 841.14 307.24 846.95 305.14C 852.76 303.04004 870.86 291 870.86 291C 870.86 291 877.17 284.53 877.67 283L877.67 283L877.88 282.68L878 282.68L878 282.47L895 257C 901.8 251.5 902.05 239.78 902.05 239.78L902.05 239.78L903.82 213L903.24 197.16L904.06 188.16C 904.06 188.16 919 150.14 904.73 150.70001L904.73 150.70001L904.73 150.7zM807.35 220C 805.503 223.23474 804.531 226.89507 804.52997 230.62L804.52997 230.62L804.52997 231.59C 804.53033 234.91653 805.3076 238.197 806.8 241.17C 806.0448 242.01602 805.4819 243.01561 805.14996 244.09999C 804.30994 243.04 801.85 239.79999 801.70996 237.65C 801.54 235.06999 799.05 233.29 799.05 233.29C 799.05 233.29 798.58997 228.39 799.20996 227.54999L799.20996 227.54999L799.3 227.46999C 799.3 227.46999 799.37 227.34999 799.51 227.14998C 800.22003 226.07997 802.61 222.46999 805.08 218.35999C 805.4907 218.53577 805.9156 218.67628 806.35004 218.77998L806.35004 218.77998L807.87006 219.15999z" stroke="none" fill="url(#1)" />
    <path transform="matrix(1 0 0 1 -33.54 -30.43)"  d="M855.79 217.3C 855.94 216.96 856.06 216.6 856.18 216.24C 855.79803 217.03596 855.4641 217.85411 855.18 218.69C 855.39 218.22 855.6 217.76001 855.79 217.3z" stroke="none" fill="url(#232)" />
    <path d="M778.25 210.65C 778.25 210.65 775.12 225.56999 769.35 227.5C 763.57996 229.43001 776.35 246.5 776.35 246.5L776.35 246.5L802.81995 245.05L803.2999 239.52C 803.2999 239.52 798.2999 228.45001 806.6699 214.98001C 815.0399 201.51001 778.24994 210.65001 778.24994 210.65001L778.24994 210.65001L778.25 210.65z" stroke="none" fill="#F6BAC2" fill-rule="nonzero" />
    <path d="M736.74 562.92C 736.38 567.37 725.43 565.69 725.43 565.69C 707.27 568.21 710.27 550.41 710.27 550.41L710.27 550.41L710.27 549.5L710.9 532.9L711.08 528.27C 711.08 528.27 731.08 519.13 730.57 521.05005C 730.38 521.77 730.8 523.50006 731.38 525.37006C 732.38 528.48004 733.81 532.00006 733.81 532.00006C 733.81 532.00006 733.93 539.3401 733.33 541.50006C 732.73004 543.66003 736.46 549.44006 736.46 549.44006C 736.46 549.44006 736.46 549.80005 736.52 550.44006C 736.816 554.5931 736.8894 558.7592 736.74 562.92004L736.74 562.92004L736.74 562.92zM771.75 567.73C 771.75 567.73 760.8 569.42 760.44 564.95996C 760.27374 560.7896 760.3372 556.6133 760.63 552.44995C 760.63 551.85 760.68 551.44995 760.68 551.44995C 760.68 551.44995 764.41 545.6699 763.81 543.50995C 763.21 541.35 763.33 533.99994 763.33 533.99994C 763.33 533.99994 763.72003 533.06995 764.23004 531.7299C 765.30005 528.9199 766.91003 524.3599 766.58 523.05994C 766.10004 521.12994 786.07 530.26996 786.07 530.26996L786.07 530.26996L786.27 535.44995L786.88 551.49994L786.88 552.4099C 786.88 552.4099 789.92 570.2599 771.75 567.7299z" stroke="none" fill="#B77983" fill-rule="nonzero" />
    <path d="M846.82 111.92C 840.46 132.37 821.16003 137.98999 821.16003 137.98999C 821.16003 137.98999 808.24005 147.56999 806.4 150.56999C 804.56 153.56999 788.68005 166.45 784.5 168.13998C 780.31995 169.82997 777.13 172.62999 778.25 176.38998C 779.25 179.87999 768.31 196.95999 766.66 199.49998L766.66 199.49998L766.45996 199.81999L763.00995 203.43L751.2999 209.35999L741.75995 206.30998L740.5499 194.84998L745.6099 185.84998C 748.5365 183.78743 750.9824 181.11638 752.7799 178.01997C 756.0699 172.55997 758.3199 168.79997 758.3199 168.79997C 758.3199 168.79997 761.9299 160.21997 767.6199 155.15997C 771.5565 151.77554 775.79785 148.76274 780.28986 146.15997L780.28986 146.15997L803.79987 132.15997C 803.79987 132.15997 809.08984 128.22998 812.79987 127.15997C 816.5099 126.089966 853.15985 91.46997 846.8199 111.919975L846.8199 111.919975L846.82 111.92z" stroke="none" fill="#F6BAC2" fill-rule="nonzero" />
    <path d="M751.3 201.99L766.94 198.86C 766.7705 199.03528 766.67096 199.26643 766.66 199.51L766.66 199.51L766.45996 199.83L763.00995 203.44L751.2999 209.37L741.75995 206.31999L740.5499 194.85999L745.6099 185.85999C 740.81995 195.85999 745.4899 202.95999 745.4899 202.95999L745.4899 202.95999L751.3 201.99zM842.76 253.65C 842.7172 253.75446 842.6805 253.8613 842.65 253.97C 842.5016 254.32745 842.3065 254.6637 842.07 254.97L842.07 254.97L835.76 258.05L826.13 259.05L821.13 246.93999L824.46 233.66998L826.30005 231.18999L826.81006 230.62999C 827.00006 233.02998 827.97003 245.54999 827.91003 249.31C 827.83 253.48 830.91003 253.81 830.91003 253.81z" stroke="none" fill="#000000" fill-rule="nonzero" fill-opacity="0.047058824" />
    <path d="M842.28 254.57C 842.23724 254.67447 842.2005 254.78131 842.17004 254.89001C 841.69006 256.41 835.60004 262.83002 835.60004 262.83002C 835.60004 262.83002 818.11005 274.78003 812.50006 276.83002C 806.8901 278.88 799.50006 289.58002 799.50006 289.58002L799.50006 289.58002L792.12006 304.81003C 792.12006 304.81003 778.8901 314.81003 777.61005 317.49002C 776.72003 319.31003 776.79004 322.49002 776.92004 324.37003C 776.92004 325.2 777.04004 325.75003 777.04004 325.75003L777.04004 325.75003L773.14 329.82004L770.03 333.06003L765.65 337.62003L758.52 336.62003L736.30005 333.09003L732.04004 330.69003L708.39 317.37003C 708.39 317.37003 708.39 316.54004 708.33 315.27002C 708.33 314.71002 708.33 314.07 708.27 313.36002C 708.2 311.2 708.10004 308.51 707.99 306.22C 707.75 301.49 711.36 293.39 711.36 293.39L711.36 293.39L718.01 277.02002C 717.37 273.90002 721.06 265.63 721.06 265.63C 720.42 264.43 724.27 252.48001 725.23 251.36C 726.18994 250.23999 727.8 241.81 727.8 241.81C 729.8 238.93 732.69 224.25 732.69 224.25C 732.69 224.25 735.98 205.64 736.69 200.99C 737.4 196.34001 745.49 185.92001 745.75 185.6C 739.98 196.18001 745.03 203.88 745.03 203.88L745.03 203.88L750.81006 202.88L766.4601 199.83C 765.7401 200.31 766.2201 205.6 766.2201 205.6C 767.6059 206.65393 768.5246 208.20789 768.7801 209.93001C 768.9301 212.28001 771.7801 215.93001 772.3101 216.58L772.3101 216.58L772.39014 216.67C 772.79736 214.4107 774.17554 212.44394 776.16016 211.29L776.16016 211.29L779.77014 216.11L780.98016 221.88C 780.98016 221.88 780.65015 222.69 778.5702 224.29001C 776.49023 225.89001 779.4502 230.06001 779.4502 230.06001C 780.4502 231.75002 780.7402 238.00002 780.7402 238.00002C 783.3902 235.68001 787.5502 235.68001 787.5502 235.68001C 789.24426 233.9796 790.62836 231.99649 791.6402 229.82C 791.8112 229.09819 792.3039 228.49469 792.97687 228.1826C 793.6498 227.8705 794.4287 227.8843 795.0902 228.22C 796.2979 227.17094 797.61554 226.25563 799.0202 225.49C 800.9502 224.49 803.1902 226.49 803.1902 226.49L803.1902 226.49L803.4302 233.88C 803.4302 233.88 803.6202 234.18001 803.9302 234.59001C 804.5602 235.47002 805.6902 236.82 806.40015 236.59001C 807.40015 236.27 815.46014 237.07 815.46014 237.07C 815.46014 237.07 818.27014 238.27 819.3101 236.75C 820.3501 235.23 826.3101 231.22 826.3101 231.22C 826.3101 231.22 827.46014 246.11 827.46014 250.27C 827.46014 254.43001 830.46014 254.77 830.46014 254.77L830.46014 254.77L842.28 254.57z" stroke="none" fill="#D39999" fill-rule="nonzero" />
    <path d="M842.46 254.57L842.25 254.57C 842.63 253.57 842.46 254.57 842.46 254.57z" stroke="none" fill="none" />
    <path d="M778.09 244.82C 778.09 245.21767 777.94946 245.55707 777.6683 245.83824C 777.38715 246.11942 777.0477 246.26001 776.65 246.26001C 776.2524 246.26001 775.91296 246.11942 775.6318 245.83824C 775.35065 245.55707 775.2101 245.21767 775.21 244.82C 775.2101 244.42238 775.35065 244.08296 775.6318 243.80177C 775.91296 243.5206 776.2524 243.38 776.65 243.38C 777.0477 243.38 777.38715 243.5206 777.6683 243.80177C 777.94946 244.08296 778.09 244.42238 778.09 244.82C 778.09 244.83678 778.0897 244.85353 778.0892 244.87027" stroke="none" fill="#4B4442" fill-rule="nonzero" />
    <path d="M767.58 265.76C 767.5801 266.15765 767.43945 266.49707 767.15826 266.77823C 766.8771 267.05942 766.5377 267.2 766.14 267.2C 765.7424 267.2 765.40295 267.05942 765.12177 266.77823C 764.8406 266.49707 764.7 266.15765 764.7 265.76C 764.7 265.36237 764.8406 265.02295 765.12177 264.7418C 765.40295 264.46063 765.7424 264.32 766.14 264.32C 766.5377 264.32 766.8771 264.46063 767.15826 264.7418C 767.43945 265.02295 767.5801 265.36237 767.58 265.76C 767.5801 265.7768 767.5798 265.79352 767.57916 265.81027" stroke="none" fill="#4B4442" fill-rule="nonzero" />
    <path d="M746.89 310.59C 746.89 310.98764 746.74945 311.32706 746.46826 311.60822C 746.18713 311.8894 745.84766 312.03 745.45 312.03C 745.05237 312.03 744.71295 311.8894 744.43176 311.60822C 744.15063 311.32706 744.01 310.98764 744.01 310.59C 744.01 310.19235 744.15063 309.85297 744.43176 309.57178C 744.71295 309.2906 745.05237 309.15002 745.45 309.15C 745.84766 309.15002 746.18713 309.2906 746.46826 309.57178C 746.74945 309.85297 746.89 310.19235 746.89 310.59C 746.89 310.60675 746.8898 310.62354 746.88916 310.64026" stroke="none" fill="#4B4442" fill-rule="nonzero" />
    <path d="M756.67 287.97C 756.67 288.36768 756.5294 288.70706 756.2482 288.98822C 755.9671 289.2694 755.6277 289.41 755.23 289.41C 754.83234 289.41 754.4929 289.2694 754.21173 288.98822C 753.9306 288.70706 753.79004 288.36768 753.79 287.97C 753.79004 287.5724 753.9306 287.23297 754.21173 286.95178C 754.4929 286.6706 754.83234 286.53 755.23 286.53C 755.6277 286.53 755.9671 286.6706 756.2482 286.95178C 756.5294 287.23297 756.67 287.5724 756.67 287.97C 756.67 287.98676 756.6697 288.00354 756.6691 288.02026" stroke="none" fill="#4B4442" fill-rule="nonzero" />
    <path d="M731.46 525.37C 723.94 534.31 715.82 534.16 710.98004 532.9L710.98004 532.9L711.16003 528.27C 711.16003 528.27 731.16003 519.13 730.65 521.05005C 730.46 521.77 730.84 523.50006 731.46 525.37006L731.46 525.37006L731.46 525.37zM786.27 535.49C 773.5 542.87 766.01 534.22 764.27 531.77C 765.34 528.96 766.95 524.4 766.62 523.10004C 766.14 521.17004 786.11 530.31006 786.11 530.31006z" stroke="none" fill="#000000" fill-rule="nonzero" fill-opacity="0.047058824" />
    <path d="M791.4 519.93C 788.84 523.62 788.99005 532.76 788.99005 532.76C 772.47003 544.63 763.81006 530.19 763.81006 530.19C 763.81006 530.19 764.93005 520.89 763.0101 513.51C 761.8723 508.72073 761.76324 503.74457 762.69006 498.91C 762.69006 498.91 762.37006 484.15 761.56006 482.07C 760.75006 479.99002 760.44006 473.89 760.7601 471.64C 761.0801 469.39 758.68005 464.27002 758.68005 464.27002C 758.68005 464.27002 758.68005 457.85 757.55005 456.41003C 756.42004 454.97006 755.15 444.69003 755.15 444.69003L755.15 444.69003L747.46 415.82004C 747.46 415.82004 744.25 398.34003 742.97003 394.49005C 741.69006 390.64008 740.08 391.44006 740.08 391.44006L740.08 391.44006L735.46 412.13007L731.93 447.42007C 730.16 451.42007 730.93 460.74008 730.93 460.74008L730.93 460.74008L732.05 474.3701L730.19 497.7901C 730.1851 497.82996 730.1851 497.87024 730.19 497.9101C 730.18677 498.36725 730.40234 498.79837 730.77 499.0701C 733.9254 506.16687 734.86304 514.05133 733.46 521.6901C 721.27 539.34015 706.51 530.1901 706.51 530.1901C 706.1881 526.16016 705.2155 522.209 703.63 518.4901C 700.9 511.75012 704.11 484.4901 704.11 484.4901L704.11 484.4901L701.7 466.84012C 701.7 466.84012 701.54004 456.25012 701.06 454.84012C 700.57996 453.4301 700.74 442.97012 700.74 442.97012L700.74 442.97012L701.06 431.90012C 696.89 417.78012 698.97 395.4901 698.97 395.4901C 698.97 395.4901 698.32996 359.88013 699.62 358.2701C 700.55 357.1101 699.96 351.8301 700.36 348.0201C 700.4024 346.86353 700.725 345.73456 701.3 344.7301L701.3 344.7301L701.45996 344.5701C 703.55 342.0001 703.55 331.7401 703.37994 327.7201C 703.2999 325.6001 704.74994 322.1601 706.12994 319.4001C 707.12994 317.46008 708.0399 315.86008 708.37994 315.2801L708.37994 315.2801L708.51996 315.05008C 708.51996 315.05008 717.66 317.30008 741.87994 328.85007C 746.2171 330.99683 750.86884 332.43826 755.66 333.12006C 758.04407 333.43863 760.4573 333.47552 762.85 333.23004C 766.50073 332.87894 770.0302 331.73206 773.19 329.87006C 774.8605 328.91736 776.36926 327.70563 777.66 326.28006C 777.32996 327.28006 777.52997 330.70007 777.66 332.74005C 777.72 333.67004 777.79 334.30005 777.79 334.30005L777.79 334.30005L780.45996 346.20004C 780.89484 347.61124 781.229 349.05154 781.45996 350.51004C 781.64996 351.57004 781.80994 352.72003 781.95996 353.94003C 783.82996 369.16003 782.82996 394.81003 782.82996 394.81003C 782.82996 394.81003 786.82996 429.94003 784.92 431.54004C 783.01 433.14005 784.58997 438.60004 784.58997 438.60004C 786.042 441.73026 786.9128 445.09836 787.16 448.54004C 787.1463 451.2281 787.81006 453.87625 789.08997 456.24005L789.08997 456.24005L788.43994 472.12006L790.11993 506.57007C 790.11993 506.57007 793.9699 516.24005 791.39996 519.93005L791.39996 519.93005L791.4 519.93z" stroke="none" fill="#8499F0" fill-rule="nonzero" />
    <path d="M772.59 461.86C 772.59 461.86 784.74005 454.86 787.39 458.00998C 790.04 461.15997 772.59 461.86 772.59 461.86zM779.93 465.71C 779.93 465.71 777.93 466.71 782.33997 467.99C 786.74994 469.27 779.93 465.71 779.93 465.71zM706.46 446.46C 706.05005 446.58 716.57 453.56 726.07 447.78C 726.03 447.78 708.83 445.74 706.46 446.46zM725.55 459.81C 725.55 459.81 722.67 465.47 716.76996 466.31C 710.86993 467.15 725.55 459.81 725.55 459.81zM764.17 472.09C 764.17 472.09 778.01 494.09 775.36 499.28C 772.70996 504.47 764.17 472.09 764.17 472.09zM740.83 338.66L739.39 381.73C 739.39 381.73 747.93 381.37003 749.39 367.18002C 750.85004 352.99002 751.92004 341.43002 751.92004 341.43002z" stroke="none" fill="#000000" fill-rule="nonzero" fill-opacity="0.047058824" />
    <path d="M740.35 337.7L738.91 380.77002C 738.91 380.77002 747.44995 380.41003 748.91 366.21002C 750.37 352.01 751.45996 340.47003 751.45996 340.47003L751.45996 340.47003L740.35 337.7z" stroke="none" fill="#8499F0" fill-rule="nonzero" />
    <path d="M723.03 339.63C 723.03 339.63 716.29004 357.7 700.87006 348.95C 700.9109 347.79315 701.2336 346.6638 701.81006 345.66C 706.03 347.43 715.81006 350.02 719.81006 338.30002L719.81006 338.30002L723.03 339.63z" stroke="none" fill="#000000" fill-rule="nonzero" fill-opacity="0.047058824" />
    <path d="M722.55 337.7C 722.55 337.7 715.81 355.77002 700.39 347.02002C 700.43243 345.8634 700.755 344.73444 701.33 343.73C 705.55 345.51 715.33 348.09 719.33 336.38L719.33 336.38L722.55 337.7z" stroke="none" fill="#000000" fill-rule="nonzero" fill-opacity="0.047058824" />
    <path d="M722.55 338.66C 722.55 338.66 715.81 356.73 700.39 347.98C 700.43243 346.82343 700.755 345.69446 701.33 344.69C 705.55 346.47 715.33 349.05 719.33 337.34L719.33 337.34L722.55 338.66z" stroke="none" fill="#8499F0" fill-rule="nonzero" />
    <path d="M781.55 354.9C 764.61 362.96 758.39996 343.96 758.39996 343.96L758.39996 343.96L762.39996 344.08C 763.1 356.22998 776.49 352.96 781.07996 351.47C 781.2399 352.57 781.39996 353.68 781.5499 354.9L781.5499 354.9L781.55 354.9z" stroke="none" fill="#000000" fill-rule="nonzero" fill-opacity="0.047058824" />
    <path d="M782.51 353.46C 765.58 361.50998 759.36 342.50998 759.36 342.50998L759.36 342.50998L763.36 342.62997C 764.06 354.77997 777.45 351.52 782.04 350.02997C 782.19995 351.08997 782.36 352.23996 782.50995 353.45996L782.50995 353.45996L782.51 353.46z" stroke="none" fill="#000000" fill-rule="nonzero" fill-opacity="0.047058824" />
    <path d="M782.03 353.94C 765.10004 361.99 758.88 342.99 758.88 342.99L758.88 342.99L762.88 343.11C 763.58 355.27 776.97003 352 781.56 350.50998C 781.72 351.56998 781.88 352.71997 782.02997 353.93997L782.02997 353.93997L782.03 353.94z" stroke="none" fill="#8499F0" fill-rule="nonzero" />
    <path d="M722.55 338.66C 722.55 338.66 715.81 356.73 700.39 347.98C 700.43243 346.82343 700.755 345.69446 701.33 344.69C 705.55 346.47 715.33 349.05 719.33 337.34L719.33 337.34L722.55 338.66zM782.03 353.94C 765.10004 361.99 758.88 342.99 758.88 342.99L758.88 342.99L762.88 343.11C 763.58 355.27 776.97003 352 781.56 350.50998C 781.72 351.56998 781.88 352.71997 782.02997 353.93997z" stroke="none" fill="#FFFFFF" fill-rule="nonzero" fill-opacity="0.09803922" />
    <path d="M736.86 559.57C 736.86 560.8 736.86 561.95 736.74 562.9C 736.38 567.35004 725.43 565.67004 725.43 565.67004C 715.43 567.06006 711.83 562.2601 710.64 557.67004C 710.266 556.17914 710.08124 554.6471 710.09 553.11005C 710.08356 552.19354 710.14374 551.2778 710.27 550.37006L710.27 550.37006L710.27 549.4601C 712.4249 548.8101 714.7623 549.2874 716.49 550.7301C 720.94 554.3401 726.83997 551.5701 726.83997 551.5701C 726.83997 551.5701 731.17 551.9301 732.83997 553.3701C 733.77997 554.1801 735.32996 552.2301 736.50995 550.3701C 736.57996 551.5701 736.68994 553.7401 736.75995 556.0601C 736.83997 557.2501 736.8599 558.45013 736.8599 559.5701L736.8599 559.5701L736.86 559.57z" stroke="none" fill="#000000" fill-rule="nonzero" fill-opacity="0.047058824" />
    <path d="M719.3 559.31C 719.3 559.31 716.3 562.25 710.64 557.71C 710.266 556.2192 710.08124 554.68713 710.09 553.15C 712.98004 555.35004 718.34 559.31 719.30005 559.31L719.30005 559.31L719.3 559.31zM736.86 559.57C 736.3666 559.95056 735.738 560.11053 735.1227 560.0121C 734.5074 559.91364 733.96 559.5655 733.61 559.05C 734.7766 558.1623 735.84894 557.157 736.81 556.05C 736.84 557.25 736.86 558.45 736.86 559.57zM760.33 561.63C 760.33 562.87 760.33 564.02 760.44 564.96C 760.8 569.42004 771.75 567.73004 771.75 567.73004C 781.75 569.13007 785.35 564.33 786.54 559.73004C 787.1294 557.34283 787.255 554.8647 786.91 552.43005L786.91 552.43005L786.91 551.5201C 784.7513 550.8813 782.4163 551.35724 780.68 552.7901C 776.23 556.4001 770.33997 553.6301 770.33997 553.6301C 770.33997 553.6301 766.00995 554.0001 764.33997 555.4401C 763.39996 556.2501 761.85 554.3001 760.68 552.4401C 760.61 553.64014 760.49 555.8101 760.42 558.1301C 760.33997 559.3001 760.32 560.5001 760.32996 561.6301z" stroke="none" fill="#000000" fill-rule="nonzero" fill-opacity="0.047058824" />
    <path d="M777.89 561.35C 777.89 561.35 780.89 564.29 786.54004 559.75C 786.91736 558.2629 787.10547 556.7342 787.10004 555.2C 784.2 557.39 778.84 561.35004 777.89 561.35004L777.89 561.35004L777.89 561.35zM760.33 561.63C 760.8218 562.01013 761.44885 562.16986 762.06256 562.07135C 762.6763 561.97284 763.22186 561.6249 763.57 561.11C 762.4022 560.22363 761.3298 559.2182 760.37 558.11C 760.33997 559.3 760.32 560.5 760.33 561.63zM747.13 254.57C 747.13 254.57 731.73 297.08002 737.66003 300.77002C 743.5901 304.46002 747.13 254.57002 747.13 254.57002zM758.36 241.45C 758.36 241.45 755.45996 255.56999 756.91 256.85C 758.36 258.13 758.36 241.45001 758.36 241.45001zM789.46 274.34C 789.46 274.34 770.53 291.97998 771.81 293.43C 773.08997 294.88 789.46 274.34 789.46 274.34zM803.93 235.51C 796.76 237.7 780 242.81999 779.81 242.78L779.81 242.78L780.74 238.95999C 783.39 236.63998 787.55 236.63998 787.55 236.63998C 789.244 234.93959 790.6281 232.95648 791.64 230.77998C 791.811 230.05817 792.30365 229.45467 792.9766 229.14258C 793.64954 228.83047 794.42847 228.84427 795.09 229.17998C 796.30054 228.13448 797.61786 227.21942 799.02 226.44998C 800.95 225.44998 803.19 227.44998 803.19 227.44998L803.19 227.44998L803.43 234.82999C 803.43 234.82999 803.62 235.09999 803.93 235.50998z" stroke="none" fill="#000000" fill-rule="nonzero" fill-opacity="0.047058824" />
    <path d="M803.93 234.57C 796.76 236.76001 780 241.88 779.81 241.83L779.81 241.83L780.74 238.02C 783.39 235.7 787.55 235.7 787.55 235.7C 789.244 233.99959 790.6281 232.01648 791.64 229.84C 791.811 229.11818 792.30365 228.51468 792.9766 228.20259C 793.64954 227.89049 794.42847 227.90428 795.09 228.23999C 796.2978 227.19093 797.6154 226.27562 799.02 225.51C 800.95 224.51 803.19 226.51 803.19 226.51L803.19 226.51L803.43 233.9C 803.43 233.9 803.62 234.14 803.93 234.56999L803.93 234.56999L803.93 234.57z" stroke="none" fill="#D39999" fill-rule="nonzero" />
    <path d="M778.97 230.57C 779.97 232.26001 780.25 238.51001 780.25 238.51001L780.25 238.51001L777.46 240.73001L772.16003 225.45001L771.92004 217.51001L771.82007 217.06001L771.9001 217.15001C 772.3049 214.89226 773.68414 212.92767 775.6701 211.78001L775.6701 211.78001L779.2801 216.59001L780.4901 222.36002C 780.4901 222.36002 780.1601 223.17001 778.08014 224.77002C 776.0002 226.37003 778.97015 230.57002 778.97015 230.57002L778.97015 230.57002L778.97 230.57z" stroke="none" fill="#000000" fill-rule="nonzero" fill-opacity="0.047058824" />
    <path d="M779.46 230.06C 780.46 231.75 780.75 238 780.75 238L780.75 238L777.96 240.25L772.66003 224.97L772.42004 217.03L772.31006 216.58L772.3901 216.67C 772.7973 214.4107 774.1755 212.44394 776.1601 211.29L776.1601 211.29L779.7701 216.11L780.9801 221.88C 780.9801 221.88 780.6501 222.69 778.5701 224.29001C 776.4902 225.89001 779.46014 230.06001 779.46014 230.06001L779.46014 230.06001L779.46 230.06z" stroke="none" fill="#D39999" fill-rule="nonzero" />
    <path d="M814.82 203.92C 814.81445 215.87564 805.11896 225.56366 793.1633 225.55998C 781.20764 225.5563 771.5181 215.86234 771.51996 203.90668C 771.5218 191.95102 781.2143 182.26001 793.17 182.26C 798.92834 182.21149 804.4649 184.47826 808.5359 188.55115C 812.60693 192.62405 814.87115 198.1616 814.82 203.92z" stroke="none" fill="#000000" fill-rule="nonzero" fill-opacity="0.047058824" />
    <path d="M814.82 202.95C 814.8241 211.71248 809.5483 219.6142 801.4536 222.96931C 793.3589 226.32445 784.0401 224.47195 777.8441 218.27596C 771.64813 212.07996 769.7956 202.76118 773.1507 194.66649C 776.5058 186.5718 784.40753 181.29597 793.17 181.3C 798.9217 181.26785 804.4472 183.5385 808.51434 187.60565C 812.5815 191.67279 814.8522 197.19826 814.82 202.95z" stroke="none" fill="#F6BAC2" fill-rule="nonzero" />
    <path d="M814.82 202.95C 814.8269 206.91864 813.7368 210.812 811.67 214.2C 811.35 213.62999 811.16 212.97 810.83997 212.39C 810.38995 211.58 809.35 210.9 808.57996 211.39C 808.2575 211.65326 808.0122 211.99878 807.86993 212.39C 807.2399 213.72 806.11993 215.05 804.64996 215.02C 803.34143 214.87988 802.2532 213.95053 801.91 212.68001C 801.60126 211.43024 801.5469 210.1312 801.75 208.86C 801.97 206.26 802.01 203.26 800.08 201.51C 798.83417 200.59877 797.4096 199.96147 795.9 199.64C 794.43005 199.16 792.9 198.4 792.30005 196.98C 791.9 195.98 792.00006 194.92 791.6401 193.98C 790.8847 192.45158 789.4342 191.38515 787.75006 191.12C 785.8386 192.69838 783.4178 193.52666 780.94006 193.45C 778.66956 193.39636 776.4163 193.03989 774.24005 192.39C 779.04095 183.77576 789.05475 179.49197 798.60034 181.96893C 808.146 184.4459 814.8134 193.05824 814.82007 202.92L814.82007 202.92L814.82 202.95z" stroke="none" fill="#000000" fill-rule="nonzero" fill-opacity="0.047058824" />
    <path d="M791.64 193.04C 792 194.04 791.9 195.12 792.3 196.04C 792.89 197.45999 794.43 198.21999 795.89996 198.7C 797.4083 199.02019 798.83246 199.6539 800.07996 200.56C 802.00995 202.31999 801.97 205.31999 801.74994 207.92C 801.5469 209.1912 801.60126 210.49023 801.9099 211.74C 802.25806 213.00739 803.3436 213.9345 804.6499 214.08C 806.1199 214.08 807.2399 212.78 807.8699 211.45C 808.01294 211.05923 808.2581 210.71394 808.5799 210.45C 809.3499 209.94 810.3899 210.62 810.8399 211.45C 811.15485 212.31604 811.589 213.13391 812.1299 213.87999C 812.8529 214.50357 813.83795 214.7283 814.7599 214.48C 815.6644 214.23282 816.5063 213.79654 817.22986 213.2C 819.2337 211.80511 820.8231 209.89435 821.82983 207.67C 822.8234 205.41786 822.7164 202.83223 821.53986 200.67C 820.78986 199.41 819.59985 198.4 819.1299 197.01C 818.3099 194.62 819.84985 192.15999 820.79987 189.81999C 821.71027 187.68004 822.0047 185.32831 821.64984 183.03C 821.2775 180.71814 819.99097 178.65318 818.07983 177.3C 814.27985 174.77 809.13983 176.16 804.7398 174.94C 803.16565 174.42325 801.63153 173.79155 800.1498 173.05C 797.90424 172.0526 795.5572 171.30154 793.1498 170.81C 790.75977 170.33 787.86975 170.27 786.3598 172.18C 785.94684 172.7923 785.57916 173.434 785.2598 174.09999C 784.3068 175.69847 782.7493 176.84497 780.9398 177.27998C 779.64984 177.58998 778.2998 177.50998 776.9398 177.69998C 775.59595 177.79332 774.3689 178.49712 773.6098 179.60999C 772.9498 180.80998 773.2298 182.26999 773.38983 183.60999C 773.54987 184.94998 773.46985 186.54999 772.38983 187.37999C 771.8798 187.76999 771.1798 187.95999 770.8698 188.51C 770.57715 189.17345 770.7705 189.95087 771.3398 190.4C 771.9021 190.82545 772.5562 191.11314 773.24976 191.23999C 775.7366 192.01653 778.3161 192.45709 780.91974 192.54999C 783.5513 192.6355 786.1125 191.69208 788.05975 189.91998C 787.8898 190.08998 786.78973 190.01999 786.5898 190.00998C 788.5298 190.21999 790.9098 191.07999 791.6398 193.03998L791.6398 193.03998L791.64 193.04z" stroke="none" fill="#7E646B" fill-rule="nonzero" />
	<g>
        <path d="M818.46 210.77C 817.7344 211.36566 816.89343 211.80484 815.99005 212.06C 815.0695 212.29852 814.0905 212.0706 813.37006 211.45C 812.82404 210.70557 812.38635 209.8874 812.07007 209.02C 811.62006 208.21 810.5801 207.53 809.81006 208.02C 809.49243 208.28775 809.2481 208.63187 809.10004 209.02C 808.48004 210.35 807.35004 211.68001 805.88007 211.65001C 804.57294 211.51144 803.48694 210.58057 803.1501 209.31001C 802.8381 208.06091 802.7803 206.76187 802.9801 205.49C 803.2101 202.89 803.2401 199.90001 801.3201 198.14C 800.07043 197.22906 798.6427 196.59187 797.1301 196.27C 795.6701 195.79001 794.1301 195.03 793.53015 193.61C 793.1301 192.61 793.23016 191.55 792.8702 190.61C 792.28015 189.02 790.61017 188.15 788.98016 187.75C 787.06213 189.3176 784.6467 190.14758 782.17017 190.09C 779.56665 189.98878 776.9878 189.54497 774.5002 188.76999C 773.8087 188.64194 773.1555 188.3581 772.5902 187.93999C 772.47363 187.83203 772.3696 187.71127 772.2802 187.57999C 771.83844 187.76906 771.4527 188.06866 771.1602 188.44998C 770.86755 189.11345 771.0609 189.89087 771.6302 190.33998C 772.1925 190.76544 772.8466 191.05313 773.54016 191.17998C 776.027 191.95651 778.6065 192.39708 781.21014 192.48997C 783.68317 192.556 786.0972 191.72882 788.01013 190.15997C 789.64014 190.55997 791.3201 191.41997 791.91016 193.00998C 792.27014 194.00998 792.17017 195.08998 792.5701 196.00998C 793.1701 197.42998 794.70013 198.18997 796.1701 198.66998C 797.67847 198.99016 799.1026 199.62387 800.3501 200.52998C 802.2801 202.28998 802.2401 205.28998 802.0201 207.88998C 801.817 209.16118 801.8714 210.46022 802.18005 211.70999C 802.5282 212.97737 803.6138 213.90448 804.92004 214.04999C 806.39 214.04999 807.5101 212.74998 808.14 211.41998C 808.2831 211.02922 808.52826 210.68393 808.85004 210.41998C 809.62006 209.90999 810.66003 210.58998 811.11005 211.41998C 811.4243 212.28824 811.8622 213.10664 812.41003 213.84998C 813.1291 214.47345 814.11127 214.69838 815.03 214.44998C 815.9346 214.2028 816.7764 213.76653 817.5 213.16998C 819.50385 211.7751 821.09326 209.86433 822.1 207.63998C 822.27765 207.21194 822.42145 206.77057 822.52997 206.31998C 821.5061 208.0765 820.1184 209.59377 818.45996 210.76997L818.45996 210.76997L818.46 210.77zM820.46 191.15C 820.67004 190.68999 820.87 190.23 821.06 189.78C 821.25 189.33 821.32 189.08 821.43 188.72C 821.0621 189.51146 820.7383 190.32271 820.46 191.15zM773.7 184.86C 774.7 184.01 774.77 182.49 774.61 181.18001C 774.49207 180.41547 774.4286 179.64354 774.42 178.87001C 774.20685 179.07822 774.0219 179.31357 773.87 179.57C 773.21 180.77 773.49 182.23001 773.65 183.57C 773.7024 183.99786 773.7191 184.42935 773.7 184.86z" stroke="none" fill="#000000" fill-rule="nonzero" fill-opacity="0.047058824" />
	</g>
    <path d="M777.64 333.73C 775.78 333.86002 773.17004 334 770.03 334.11002C 767.85004 334.18002 765.41003 334.23 762.80005 334.23C 760.52 334.23 758.11005 334.23 755.61005 334.12003C 747.7027 333.91586 739.82275 333.1035 732.04004 331.69003C 721.65 329.69003 712.04004 326.24002 706.04004 320.40002C 707.04004 318.46002 707.95 316.85004 708.29004 316.28003C 708.29004 315.72003 708.29004 315.07004 708.23004 314.37003C 718.78 319.37003 751.67004 333.26 776.88007 325.37003C 776.88007 326.2 777.00006 326.75003 777.00006 326.75003L777.00006 326.75003L777.57007 327.23004C 777.2801 328.27005 777.4601 331.69003 777.6401 333.73004L777.6401 333.73004L777.64 333.73z" stroke="none" fill="#000000" fill-rule="nonzero" fill-opacity="0.047058824" />
    <path d="M777.64 332.77C 775.78 332.9 773.17004 333.03998 770.03 333.13998C 767.85004 333.21997 765.41003 333.25998 762.80005 333.25998C 760.52 333.25998 758.11005 333.25998 755.61005 333.15C 747.703 332.94934 739.823 332.14026 732.04004 330.72998C 721.65 328.72998 712.04004 325.27 706.04004 319.43C 707.04004 317.49 707.95 315.88998 708.29004 315.31C 708.29004 314.75 708.29004 314.11 708.23004 313.4C 718.78 318.4 751.67004 332.3 776.88007 324.44998C 776.88007 325.27997 777.00006 325.83 777.00006 325.83L777.00006 325.83L777.57007 326.31C 777.2801 327.31 777.4601 330.73 777.6401 332.77L777.6401 332.77L777.64 332.77z" stroke="none" fill="#4B4442" fill-rule="nonzero" />
    <path d="M278.53 770.44C 276.10654 767.52277 274.9956 763.7341 275.46 759.97003L275.46 759.97003L319.6 398.8L323.26 368.8C 324.1085 361.89676 329.94507 356.69348 336.90002 356.63998L336.90002 356.63998L466.19 355.78C 469.90912 355.7572 473.46228 354.23743 476.04755 351.56375C 478.6328 348.89005 480.03226 345.28778 479.93 341.57L479.93 341.57L479.88 340.2C 479.7526 336.4504 481.1529 332.80975 483.76016 330.112C 486.36743 327.41425 489.95822 325.89056 493.71 325.89L493.71 325.89L629.57 325.89C 637.19635 325.88998 643.3834 332.0636 643.4 339.69C 643.39923 340.3119 643.35913 340.93314 643.28 341.55C 642.75916 345.44244 643.91766 349.3728 646.4665 352.36044C 649.0153 355.34808 652.7141 357.11124 656.64 357.21L656.64 357.21L787.12 360.53998C 791.13464 360.6387 794.9078 362.47882 797.4575 365.58145C 800.0072 368.68408 801.0812 372.7423 800.4 376.69998L800.4 376.69998L735.17004 757.69995L733.94006 764.89996C 733.63605 766.7394 732.95514 768.4961 731.94006 770.05994L731.94006 770.05994L278.53 770.44z" stroke="none" fill="#B7B6CC" fill-rule="nonzero" />
    <path transform="matrix(0.5684182 -0.8227398 0.8227398 0.5684182 -82.87018 691.1196)"  d="M531.63 367.62L794.45996 367.62L794.45996 447.97998L531.63 447.97998L531.63 367.62z" stroke="none" fill="url(#465)" />
    <path d="M672.287 249.373L735.145 292.8L587.74805 506.14398L524.89105 462.71698L672.287 249.373z" stroke="none" fill="#F9FAFB" fill-rule="nonzero" />
    <path d="M676.816 259.481L721.104 290.267L690.318 334.555L646.02997 303.76898L676.816 259.481z" stroke="none" fill="#F7B643" fill-rule="nonzero" />
    <path d="M642.122 312.852L686.558 343.552L655.858 387.989L611.422 357.289L642.122 312.852z" stroke="none" fill="#F7B643" fill-rule="nonzero" fill-opacity="0.49803922" />
    <path d="M605.047 366.501L649.483 397.20102L618.78296 441.63702L574.347 410.937L605.047 366.501z" stroke="none" fill="#F7B643" fill-rule="nonzero" fill-opacity="0.29803923" />
    <path transform="matrix(0.28049916 -0.9598543 0.9598543 0.28049916 25.4104 850.099)"  d="M485.89 360.77L747.74 360.77L747.74 441.13L485.89 441.13L485.89 360.77z" stroke="none" fill="url(#758)" />
    <path d="M583.478 236.01L656.81104 257.44L584.35 505.4L511.01697 483.97L583.478 236.01z" stroke="none" fill="#F9FAFB" fill-rule="nonzero" />
    <path d="M593.106 243.168L644.947 258.318L629.797 310.16L577.956 295.01L593.106 243.168z" stroke="none" fill="#F97878" fill-rule="nonzero" />
    <path d="M574.814 305.755L626.655 320.905L611.505 372.747L559.664 357.59702L574.814 305.755z" stroke="none" fill="#F97878" fill-rule="nonzero" fill-opacity="0.49803922" />
    <path d="M556.524 368.333L608.36597 383.483L593.21594 435.324L541.37396 420.174L556.524 368.333z" stroke="none" fill="#F97878" fill-rule="nonzero" fill-opacity="0.29803923" />
    <path transform="matrix(0.0801988 -0.9967789 0.9967789 0.0801988 110.400116 929.6794)"  d="M461.24 361.9L723.08997 361.9L723.08997 442.26L461.24 442.26L461.24 361.9z" stroke="none" fill="url(#1048)" />
    <path d="M531.532 239.92L607.686 246.048L586.969 503.546L510.815 497.41898L531.532 239.92z" stroke="none" fill="#F9FAFB" fill-rule="nonzero" />
    <path d="M542.37 244.985L596.207 249.316L591.875 303.15198L538.039 298.82098L542.37 244.985z" stroke="none" fill="#73B53B" fill-rule="nonzero" />
    <path d="M537.136 309.966L590.972 314.298L586.64 368.134L532.804 363.802L537.136 309.966z" stroke="none" fill="#73B53B" fill-rule="nonzero" fill-opacity="0.49803922" />
    <path d="M531.91 374.968L585.746 379.3L581.414 433.136L527.578 428.804L531.91 374.968z" stroke="none" fill="#73B53B" fill-rule="nonzero" fill-opacity="0.29803923" />
    <path transform="matrix(0.9989626 -0.04553734 0.04553734 0.9989626 -51.499996 -3.8901367)"  d="M533.99 277.13L614.35 277.13L614.35 538.98L533.99 538.98L533.99 277.13z" stroke="none" fill="url(#1342)" />
    <path d="M497.272 250.274L573.592 246.795L585.35596 504.857L509.03595 508.336L497.272 250.274z" stroke="none" fill="#FFFFFF" fill-rule="nonzero" />
    <path d="M508.65 253.923L562.60297 251.463L565.063 305.417L511.10898 307.87698L508.65 253.923z" stroke="none" fill="#BBB8FA" fill-rule="nonzero" />
    <path d="M513.734 316.993L567.744 314.293L570.44403 368.303L516.434 371.00302L513.734 316.993z" stroke="none" fill="#BBB8FA" fill-rule="nonzero" fill-opacity="0.49803922" />
    <path d="M514.585 384.197L568.539 381.73798L570.999 435.692L517.04504 438.15198L514.585 384.197z" stroke="none" fill="#BBB8FA" fill-rule="nonzero" fill-opacity="0.29803923" />
    <path d="M529.68 590.71L461.8 616.97003L362.59 655.32C 358.84 648.32 353.32 638.86 346.49 627.57C 322.99 588.63 284.11 528.06 249.48999 474.83002C 210.48999 414.83002 176.91998 364.2 176.91998 364.2L176.91998 364.2L201.21999 357.2L399.71997 299.57L529.68 590.71z" stroke="none" fill="#E6ECF8" fill-rule="nonzero" />
    <path d="M529.68 590.71L461.8 616.97003C 423.8805 624.8701 385.18423 628.4264 346.46 627.57C 322.96 588.63 284.08 528.06 249.45999 474.83002L249.45999 474.83002L201.23 357.16003L399.72 299.57004L529.68 590.71z" stroke="none" fill="#000000" fill-rule="nonzero" fill-opacity="0.09803922" />
    <path d="M580.18 574.37C 580.18 574.37 474.72998 636.75 317.28998 622.64L317.28998 622.64L191.77997 316.64L251.92996 306.30002L459.86996 270.59003L577.87 568.42004L580.18 574.37z" stroke="none" fill="#BBB8FA" fill-rule="nonzero" />
    <path d="M577.83 568.46C 553 569.68 524.27 569.56 495.37003 566.11005C 464.09003 562.43005 432.63004 554.85004 405.66003 540.9501C 383.11005 529.3401 363.83002 516.7101 347.02002 501.56006C 303.29 462.23004 276.23 405.97006 251.93002 306.34006L251.93002 306.34006L459.87003 270.63007L577.83 568.46z" stroke="none" fill="#000000" fill-rule="nonzero" fill-opacity="0.09803922" />
    <path d="M655.19 551.35C 655.19 551.35 577.46 566.56995 498.34 557.19995C 467.06 553.51996 435.6 545.93994 408.63 532.04C 386.08002 520.43 366.81 507.8 349.99 492.64996C 295.87 443.95996 267.28998 369.33997 237.81999 218.64996C 237.81999 218.64996 367.03998 249.83997 494.82 181.51996C 494.78 181.56996 537.85 450.34995 655.19 551.35z" stroke="none" fill="#F9FAFB" fill-rule="nonzero" />
    <path d="M498.34 557.2C 467.06 553.52 435.6 545.94 408.63 532.04004C 386.08002 520.43005 366.81 507.80005 349.99 492.65002C 396.07 488.91003 402.69 463.72003 402.69 463.72003C 436.85 517.93005 498.34 557.2 498.34 557.2z" stroke="none" fill="#000000" fill-rule="nonzero" fill-opacity="0.09803922" />
    <path d="M304.66 273.97C 304.66 273.97 409.74 268.03 439.08002 245.38L439.08002 245.38L443.53003 259.68C 443.53003 259.68 374.10004 290.31 304.66003 290.68L304.66003 290.68L304.66 273.97zM304.66 344.57C 304.66 344.57 406.4 339 483.27002 301.87L483.27002 301.87L485.87003 307.81C 485.87003 307.81 424.87003 343.41998 304.66003 352.74zM312.85 372.08C 312.85 372.08 414.59 366.50998 491.45 329.37997L491.45 329.37997L494.05002 335.31998C 494.05002 335.31998 433.05002 370.91998 312.85004 380.24997zM321.03 399.63C 321.03 399.63 422.77 394.06 499.64 356.93L499.64 356.93L502.23 362.87C 502.23 362.87 441.23 398.47998 321.03003 407.8zM329.22 427.18C 329.22 427.18 430.96 421.61 507.82 384.47998L507.82 384.47998L510.42 390.41998C 510.42 390.41998 449.42 426.02997 329.22003 435.34998zM337.4 454.74C 337.4 454.74 439.13998 449.16998 516.01 412.03998L516.01 412.03998L518.60004 417.97998C 518.60004 417.97998 457.60004 453.58 337.40002 462.90997z" stroke="none" fill="#BBB8FA" fill-rule="nonzero" fill-opacity="0.29803923" />
    <path d="M1052.77 796.81C 1052.77 796.81 1010.49 794.26 1015.47003 823.89C 1015.47003 823.89 1014.47003 829.12 1019.23004 831.5C 1019.23004 831.5 1019.30005 829.3 1023.56006 830.05C 1025.0792 830.3055 1026.6234 830.37933 1028.16 830.26996C 1030.2335 830.13104 1032.2042 829.3161 1033.77 827.94995C 1033.77 827.94995 1045.66 823.04 1050.28 803.61993C 1050.28 803.61993 1053.7001 799.37994 1053.56 798.2899L1053.56 798.2899L1046.43 801.2899C 1046.43 801.2899 1048.87 806.43994 1046.9501 810.7099C 1046.9501 810.7099 1046.7201 801.4799 1045.3501 801.7099C 1045.0701 801.7099 1041.6401 803.4899 1041.6401 803.4899C 1041.6401 803.4899 1045.8301 812.4899 1042.6401 818.9699C 1042.6401 818.9699 1043.8401 807.9199 1040.3002 804.1399L1040.3002 804.1399L1035.3002 807.0699C 1035.3002 807.0699 1040.2002 816.3299 1036.8801 823.8899C 1036.8801 823.8899 1037.7301 812.29987 1034.2401 807.7799L1034.2401 807.7799L1029.6901 811.3299C 1029.6901 811.3299 1034.3 820.4599 1031.4901 826.7299C 1031.4901 826.7299 1031.1201 813.2299 1028.7001 812.2099C 1028.7001 812.2099 1024.7001 815.7199 1024.1201 817.2099C 1024.1201 817.2099 1027.2701 823.8299 1025.31 827.3299C 1025.31 827.3299 1024.1101 818.3299 1023.13007 818.3299C 1023.13007 818.3299 1019.13007 824.3299 1018.75006 828.3299C 1018.75006 828.3299 1018.92004 822.2499 1022.17004 817.7199C 1019.8804 818.15717 1017.7677 819.2517 1016.09 820.86993C 1016.09 820.86993 1016.71 816.64996 1023.15 816.2899C 1023.15 816.2899 1026.43 811.7699 1027.3 811.4899C 1027.3 811.4899 1020.9 810.9599 1017.02 812.67993C 1017.02 812.67993 1020.44 808.67993 1028.48 810.50995L1028.48 810.50995L1032.97 806.85C 1032.97 806.85 1024.5399 805.69 1020.97 806.97C 1020.97 806.97 1025.08 803.44995 1034.1799 805.97L1034.1799 805.97L1039.07 803.05C 1039.07 803.05 1031.8899 801.5 1027.61 802.05C 1027.61 802.05 1032.12 799.61 1040.51 802.25L1040.51 802.25L1044 800.68C 1044 800.68 1038.74 799.68 1037.2 799.48C 1035.6599 799.27997 1035.57 798.89996 1035.57 798.89996C 1038.9047 798.3375 1042.3303 798.71857 1045.46 799.99994C 1045.46 799.99994 1052.89 797.27997 1052.77 796.80994L1052.77 796.80994L1052.77 796.81z" stroke="none" fill="#BBB8FA" fill-rule="nonzero" />
    <path d="M993.73004 834.08C 993.73004 831.28546 1007.1257 829.02 1023.65 829.02C 1040.1744 829.02 1053.5701 831.28546 1053.5701 834.08C 1053.5701 836.8746 1040.1744 839.14 1023.65 839.14C 1007.1257 839.14 993.73004 836.8746 993.73004 834.08" stroke="none" fill="#BBB8FA" fill-rule="nonzero" fill-opacity="0.09803922" />
    <path d="M711.75 815.19C 711.75 810.0869 757.41693 805.95 813.75 805.95C 870.08307 805.95 915.75 810.0869 915.75 815.19C 915.75 820.2931 870.08307 824.43 813.75 824.43C 757.41693 824.43 711.75 820.2931 711.75 815.19" stroke="none" fill="#BBB8FA" fill-rule="nonzero" fill-opacity="0.09803922" />
    <path d="M1072.46 699C 1072.46 699 1048.63 697.56 1051.46 714.27C 1051.1608 716.0059 1052.0123 717.7373 1053.57 718.56C 1053.57 718.56 1053.62 717.32 1056.0199 717.74C 1056.8756 717.8809 1057.7449 717.9212 1058.6099 717.86C 1059.7772 717.7845 1060.8875 717.32776 1061.7699 716.56C 1061.7699 716.56 1068.4698 713.79 1071.08 702.84C 1071.08 702.84 1073.01 700.45 1072.9299 699.84L1072.9299 699.84L1068.9299 701.55005C 1068.9299 701.55005 1070.2999 704.46 1069.22 706.87006C 1069.22 706.87006 1069.09 701.66003 1068.32 701.78C 1068.1599 701.78 1066.23 702.78 1066.23 702.78C 1066.23 702.78 1068.59 707.78 1066.8099 711.51C 1066.8099 711.51 1067.49 705.28 1065.49 703.14L1065.49 703.14L1062.66 704.8C 1062.66 704.8 1065.42 710.01996 1063.55 714.27997C 1063.55 714.27997 1064.03 707.74 1062.06 705.19995L1062.06 705.19995L1059.5 707.19995C 1059.5 707.19995 1062.09 712.35 1060.5 715.87994C 1060.5 715.87994 1060.29 708.26996 1058.93 707.69995C 1057.9587 708.5236 1057.0892 709.4602 1056.3401 710.4899C 1056.3401 710.4899 1058.1201 714.2299 1057.0201 716.19995C 1057.0201 716.19995 1056.3401 711.12994 1055.7902 711.1099C 1055.7902 711.1099 1053.5502 714.4599 1053.3202 716.75995C 1053.4287 714.6258 1054.0941 712.5572 1055.2502 710.75995C 1053.9569 711.0035 1052.7639 711.6226 1051.8202 712.54C 1051.8202 712.54 1052.1702 710.16 1055.8202 709.95996C 1055.8202 709.95996 1057.6702 707.41 1058.1602 707.24994C 1058.1602 707.24994 1054.5502 706.94995 1052.3601 707.9199C 1052.3601 707.9199 1054.2902 705.67993 1058.8201 706.69995L1058.8201 706.69995L1061.3601 704.62994C 1061.3601 704.62994 1056.6001 703.9799 1054.5901 704.69995C 1054.5901 704.69995 1056.91 702.69995 1062.04 704.16L1062.04 704.16L1064.8 702.50995C 1062.6766 702.04517 1060.5015 701.8602 1058.3301 701.95996C 1058.3301 701.95996 1060.8801 700.57996 1065.6001 702.06995L1065.6001 702.06995L1067.6001 701.18994C 1067.6001 701.18994 1064.6001 700.5999 1063.7601 700.50995C 1062.9202 700.42 1062.8401 700.17993 1062.8401 700.17993C 1064.7217 699.86694 1066.6532 700.08154 1068.42 700.7999C 1068.42 700.7999 1072.54 699.25995 1072.4601 698.99994L1072.4601 698.99994L1072.46 699z" stroke="none" fill="#BBB8FA" fill-rule="nonzero" />
    <path d="M1039.1901 720.01C 1039.1901 718.436 1046.743 717.16003 1056.06 717.16003C 1065.3771 717.16003 1072.93 718.436 1072.93 720.01C 1072.93 721.58405 1065.3771 722.86 1056.06 722.86C 1046.743 722.86 1039.1901 721.58405 1039.1901 720.01" stroke="none" fill="#BBB8FA" fill-rule="nonzero" fill-opacity="0.09803922" />
    <path d="M931.78 713.5C 931.78 713.5 903 711.76 906.4 731.93C 906.03784 734.0268 907.06744 736.1183 908.95 737.11C 908.95 737.11 908.95 735.61 911.95 736.11C 912.98364 736.28467 914.0345 736.335 915.08 736.26C 916.492 736.16595 917.8341 735.61084 918.9 734.68C 918.9 734.68 926.99005 731.33997 930.14 718.12C 930.14 718.12 932.47003 715.24 932.37 714.49L932.37 714.49L927.46 716.57C 927.46 716.57 929.12 720.07 927.81 722.98C 927.81 722.98 927.65 716.69995 926.72 716.83997C 926.52997 716.83997 924.19995 718.05994 924.19995 718.05994C 924.19995 718.05994 927.0499 724.1599 924.89996 728.5999C 924.89996 728.5999 925.72 721.0799 923.30994 718.49994L923.30994 718.49994L919.88995 720.49994C 919.88995 720.49994 923.22 726.80994 920.95996 731.94995C 920.95996 731.94995 921.54 724.05994 919.17 720.94995L919.17 720.94995L916.07 723.36993C 916.07 723.36993 919.21 729.57996 917.29 733.8499C 917.29 733.8499 917.05 724.6599 915.39996 723.9699C 915.39996 723.9699 912.68994 726.3599 912.27997 727.3399C 912.27997 727.3399 914.42 731.8499 913.08997 734.2299C 913.08997 734.2299 912.26996 728.1099 911.6 728.0799C 911.6 728.0799 908.91 732.1399 908.6 734.9099C 908.7348 732.34143 909.53796 729.85266 910.93 727.68994C 909.37256 727.987 907.9366 728.73456 906.8 729.83997C 906.8 729.83997 907.22 726.97 911.6 726.72C 911.6 726.72 913.82996 723.63995 914.43 723.45996C 914.43 723.45996 910.07 723.08997 907.43 724.25995C 907.43 724.25995 909.75 721.55994 915.22 722.79L915.22 722.79L918.27997 720.29C 918.27997 720.29 912.55 719.50995 910.11 720.37C 910.11 720.37 912.91 717.98 919.11 719.73L919.11 719.73L922.44 717.73C 922.44 717.73 917.55 716.68 914.63 717.06C 914.63 717.06 917.71 715.4 923.41003 717.2L923.41003 717.2L925.79004 716.13C 925.79004 716.13 922.21 715.43 921.16003 715.32C 920.11005 715.21 920.06006 714.92 920.06006 714.92C 922.3285 714.53546 924.6593 714.79175 926.79004 715.66C 926.79004 715.66 931.87006 713.81 931.78 713.5z" stroke="none" fill="#BBB8FA" fill-rule="nonzero" />
    <path d="M891.59 738.87C 891.59 736.97015 900.70996 735.43 911.96 735.43C 923.2101 735.43 932.33 736.97015 932.33 738.87C 932.33 740.76984 923.2101 742.31 911.96 742.31C 900.70996 742.31 891.59 740.76984 891.59 738.87" stroke="none" fill="#BBB8FA" fill-rule="nonzero" fill-opacity="0.09803922" />
    <path d="M24.730001 819C 24.730001 816.20544 38.12564 813.94 54.65 813.94C 71.17436 813.94 84.57 816.20544 84.57 819C 84.57 821.79456 71.17436 824.06 54.65 824.06C 38.12564 824.06 24.730001 821.79456 24.730001 819" stroke="none" fill="#BBB8FA" fill-rule="nonzero" fill-opacity="0.09803922" />
    <path d="M34.56 795.49C 34.56 795.49 51.620003 794.97 56.77 791.31C 61.92 787.65 83.020004 783.31 84.3 789.14C 85.58 794.97003 109.950005 818.36 90.68 818.52C 71.409996 818.68005 45.91 815.52 40.77 812.39C 35.63 809.26 34.56 795.49 34.56 795.49z" stroke="none" fill="#A8A8A8" fill-rule="nonzero" />
    <path d="M91.02 816.47C 71.75 816.62994 46.249996 813.47 41.109997 810.33997C 37.209995 807.95996 35.649998 799.41 35.109997 795.47L35.109997 795.47L34.539997 795.47C 34.539997 795.47 35.62 809.24 40.749996 812.37C 45.879993 815.5 71.45999 818.67 90.67999 818.57C 96.23999 818.52 98.159996 816.57 98.05999 813.57C 97.27999 815.33 95.15999 816.44 91.01999 816.47003L91.01999 816.47003L91.02 816.47z" stroke="none" fill="#000000" fill-rule="nonzero" fill-opacity="0.2" />
    <path transform="matrix(0.3091829 -0.9510026 0.9510026 0.3091829 502.71024 1025.3801)"  d="M909.52 6.09L1080.1901 6.09L1080.1901 311.51L909.52 311.51L909.52 6.09z" stroke="none" fill="url(#1587)" />
    <path d="M792.078 161.847L844.12 1.774L1130.562 94.9L1078.52 254.97299L792.078 161.847z" stroke="none" fill="#F6F7F9" fill-rule="nonzero" />
    <path d="M906.3 90.37C 906.30005 99.02983 903.2383 106.421455 897.11487 112.544876C 890.99146 118.6683 883.59985 121.73 874.94 121.73C 866.2802 121.73 858.8886 118.6683 852.76514 112.544876C 846.6418 106.421455 843.5801 99.02983 843.58 90.37C 843.5801 81.71018 846.6418 74.31856 852.76514 68.19513C 858.8886 62.071716 866.2802 59.010006 874.94 59.010002C 883.59985 59.010006 890.99146 62.071716 897.11487 68.19513C 903.2383 74.31856 906.30005 81.71018 906.3 90.37C 906.30005 90.73493 906.29364 91.09975 906.2809 91.464455" stroke="none" fill="#BBB8FA" fill-rule="nonzero" fill-opacity="0.2" />
    <path d="M949.971 84.724L952.627 76.555L1082.563 118.798996L1079.907 126.967995L949.971 84.724zM943.2 105.552L945.85504 97.382L1012.04504 118.90201L1009.38904 127.07201zM936.416 126.393L939.072 118.223L1046.126 153.028L1043.47 161.198zM929.646 147.226L932.302 139.056L1062.237 181.3L1059.581 189.47z" stroke="none" fill="#BBB8FA" fill-rule="nonzero" fill-opacity="0.2" />
    <path d="M1011.368 215.488L1016.503 199.692L1052.4609 211.382L1047.325 227.17801L1011.368 215.488z" stroke="none" fill="#BBB8FA" fill-rule="nonzero" fill-opacity="0.49803922" />
    <path transform="matrix(1 0 0 1 -33.54 -30.43)"  d="M968.51 513.39C 968.495 513.0551 968.4617 512.7213 968.41003 512.39C 968.41003 512.04004 968.30005 511.69 968.24005 511.39C 968.11005 510.71002 967.97003 510.04 967.81006 509.39C 967.73004 509.08002 967.6501 508.76 967.56006 508.46002C 966.61304 504.91275 964.9071 501.6134 962.56006 498.79C 962.43005 498.63 962.29004 498.48 962.16003 498.33002C 962.03 498.18002 961.62006 497.75003 961.35004 497.48C 961.08 497.21 960.83 496.97 960.57 496.74002C 960.31 496.51004 960.07 496.30002 959.83 496.1C 959.35004 495.71 958.9 495.38 958.51 495.1C 958.12 494.82 957.94 494.72 957.7 494.58002C 957.12714 494.238 956.48456 494.0295 955.82 493.97003L955.82 493.97003L951.67 493.56003L946 493L925.73 485.13L924.93 485.41C 924.33575 483.77304 923.83496 482.10376 923.43 480.41C 924.044 480.14438 924.5907 479.7446 925.02997 479.24C 925.5079 478.86847 925.88586 478.3839 926.12994 477.83C 926.63995 476.65 925.66 474.13998 925.8599 472.69998C 926.17993 470.38998 927.37994 468.15997 928.3599 466.06998C 930.43994 461.58 931.9599 456.71 931.7099 451.77997C 931.4599 446.84995 929.2099 441.84998 925.0499 439.09998C 922.8999 437.66998 920.36993 436.90997 918.12994 435.61C 916.38995 434.61 914.8599 433.27 913.19995 432.12997C 904.89496 426.59302 894.2895 425.8333 885.27997 430.12997C 881.06995 432.19998 877.48 435.3 873.50995 437.78998C 869.5399 440.27997 864.8599 442.18997 860.20996 441.44998C 860.1456 441.63864 860.09875 441.83276 860.06995 442.02997L860.06995 442.02997L859.67993 441.97998C 858.87994 444.15997 860.8399 446.31998 862.67993 447.80997C 866.1099 450.63995 869.99994 453.45996 874.4699 453.55997C 876.1999 453.55997 878.0299 453.22998 879.5999 453.93997C 879.95685 454.09772 880.2928 454.29926 880.5999 454.53998C 878.57074 462.6706 881.2754 471.25217 887.5999 476.74997L887.5999 476.74997L877.24994 473.02997C 877.24994 473.02997 876.81995 473.24997 876.14996 473.66998L876.14996 473.66998L861.79 464.11C 861.79 464.11 833 453.67 825 469.93C 817 486.18997 859.67 477.8 859.67 477.8L859.67 477.8L868.8 482.8C 868.4929 484.68732 868.8461 486.62277 869.8 488.28L869.8 488.28L894.69 503.66C 889.69 505.21 881.4 507.66 879.93 507.66C 877.8 507.66 871.93 509.76 868.2 518.15C 864.47003 526.54004 851.13 567.47003 839.4 574.29004C 827.67004 581.11005 796.74005 626.76 796.74005 626.76L796.74005 626.76L796.88007 627.12C 796.3301 627.27 795.79004 627.42 795.2601 627.6C 788.76495 629.8547 783.1431 634.09467 779.19006 639.72C 778.1237 641.202 777.92365 643.13855 778.6644 644.8073C 779.40515 646.4761 780.9756 647.62665 782.79004 647.82996C 795.00006 649.37994 801.67004 643.74994 804.88007 639.49994C 805.0901 639.2299 805.2801 638.95996 805.4601 638.68994C 806.4101 639.0983 807.47614 639.1481 808.4601 638.82996L808.4601 638.82996L823.3901 626.75995C 823.3901 626.75995 811.7101 638.25995 818.56006 648.75995L818.56006 648.75995L818.04004 649.4899C 806.4939 665.97437 798.02423 684.4111 793.04004 703.9099C 793.04004 703.9099 786.64 708.6299 786.11005 727.5199C 785.5801 746.4099 779.17004 776.8399 779.17004 776.8399C 779.17004 776.8399 774.91003 813.0499 777.57007 824.05994C 777.57007 824.05994 777.88007 824.49994 778.4501 825.1699C 778.25006 825.4099 778.0301 825.6699 777.7901 825.92993C 775.4601 828.44995 771.2601 831.92993 766.3701 830.92993C 758.9101 829.3499 758.9101 842.4699 769.5701 843.51996C 776.4401 844.18994 789.9401 847.25995 798.6901 849.36C 800.6246 849.84784 802.67535 849.36383 804.18756 848.06256C 805.6997 846.7613 806.4841 844.80554 806.2901 842.82C 805.7701 838.12 804.8201 832.43 803.0901 828.38C 802.9801 828.13 802.8701 827.88 802.7601 827.65C 803.07007 827.35004 803.3901 827.05005 803.7001 826.73004C 803.7001 826.73004 803.7001 803.64 807.44006 797.35004C 807.44006 797.35004 817.57007 749.60004 817.0301 737.53C 816.6201 728.09 843.32007 691.32 854.94006 675.79004L854.94006 675.79004L854.8401 675.2C 857.8401 671.2 859.7001 668.8 859.7001 668.8L859.7001 668.8L868.69006 726C 868.69006 726 872.9601 738.59 878.29004 745.41C 878.29004 745.41 901.22003 788.95996 903.89 802.6C 905.89 812.94995 910.07 819.06 911.97003 821.42L911.97003 821.42L911.28 822.07996C 908.85004 824.30994 905.28 826.54 901.22003 825.68994C 893.76 824.1099 893.76 837.2299 904.42004 838.27997C 911.29004 838.95996 924.79004 842.02997 933.53 844.12994C 935.46716 844.6177 937.52045 844.1325 939.0344 842.8294C 940.5484 841.5263 941.33386 839.5682 941.14 837.57996C 940.53 832.11993 939.34 825.32996 937.04004 821.31995C 936.85425 820.9762 936.65063 820.64246 936.43005 820.31995C 937.2431 819.9952 937.9691 819.485 938.55005 818.82996C 938.55005 818.82996 924.68005 785.76996 924.68005 776.82996C 924.68005 776.82996 918.82007 742.73 899.09 730.13995C 899.09 730.13995 900.95 687.48 906.57 663.7399C 906.71 663.1599 906.85004 662.57996 906.99 662.01996C 912.2276 661.20135 917.421 660.11993 922.55 658.77997L922.55 658.77997L923.08 643.04L925.75 655.63L955.61 637.27C 955.61 637.27 955.35 633.96 954.85 628.89C 954.58997 626.35004 954.27997 623.37 953.91 620.14C 953.61 617.56 953.26996 614.82 952.91 612.02C 952.81 611.32 952.72 610.61005 952.62 609.91003C 952.23 607.08 951.8 604.22003 951.33997 601.42004C 951.16 600.3667 950.98 599.3267 950.8 598.30005C 950.55 596.93005 950.3 595.59 950.04 594.30005C 949.91 593.65 949.76996 593.00006 949.63995 592.37006C 949.50995 591.74005 949.3599 591.11005 949.22 590.50006C 949.08 589.8901 948.93994 589.30005 948.8 588.7101C 948.72 588.4201 948.64996 588.13007 948.58 587.8501C 948.43 587.2801 948.28 586.7201 948.13 586.1801C 947.50415 583.93646 947.14166 581.62756 947.05 579.3001L947.05 579.3001L947.05 576.5301C 947.05 575.6101 947.19 574.69006 947.32 573.7701C 947.38 573.32007 947.46 572.8601 947.55 572.4101C 947.889 570.5812 948.3944 568.78705 949.06 567.0501C 949.39 566.1801 949.77 565.3201 950.18 564.4701C 951.18 562.4701 952.18 560.3401 953.24 558.07007C 953.77997 556.94006 954.32 555.7801 954.86 554.6001C 955.39996 553.4201 955.95 552.2201 956.5 551.0001C 961.69 539.4301 966.81 526.5401 968.18 518.0701C 968.32 517.1801 968.43 516.34015 968.48 515.5501C 968.5384 514.83154 968.54846 514.11 968.51 513.39014L968.51 513.39014L968.51 513.39z" stroke="none" fill="url(#1881)" />
    <path d="M845.9 451.57L828.31 439.68C 828.31 439.68 800.38 429.33 792.62 445.37C 784.86 461.41 826.24 453.13 826.24 453.13L826.24 453.13L843.83 462.95L845.9 451.57z" stroke="none" fill="#AE6E79" fill-rule="nonzero" />
    <path d="M655.062 550.223L746.042 408.69904L966.35596 550.33105L875.37695 691.85406L655.062 550.223z" stroke="none" fill="#F9FAFB" fill-rule="nonzero" />
    <path d="M687.708 540.351L713.234 500.17502L722.688 506.18103L697.161 546.35706L687.708 540.351zM717.924 548.49L773.986 460.253L782.65405 465.761L726.5931 553.997zM736.442 560.245L792.504 472.008L801.17206 477.51498L745.11005 565.75195zM754.954 572.018L811.016 483.781L819.684 489.289L763.62305 577.525zM774.111 589.076L830.56305 501.263L839.19006 506.808L782.73804 594.622z" stroke="none" fill="#B7B6CC" fill-rule="nonzero" />
    <path d="M791.983 595.541L848.04395 507.30402L856.71295 512.812L800.65094 601.049L791.983 595.541zM810.5 607.296L866.562 519.059L875.23004 524.567L819.16907 612.80304z" stroke="none" fill="#FFFFFF" fill-rule="nonzero" />
    <path d="M888.242 557.172L902.758 534.324L925.607 548.841L911.08997 571.689L888.242 557.172z" stroke="none" fill="#B7B6CC" fill-rule="nonzero" />
    <path d="M897.93 814.21C 889.44 812.14 876.35 809.12 869.69 808.45C 859.34 807.45 859.34 794.45 866.59 796.03C 870.51 796.88 873.99005 794.67004 876.34 792.48004C 877.0534 791.7941 877.7215 791.06256 878.34 790.29004C 879.19507 789.2502 880.37494 788.5282 881.69 788.24005C 885.57 787.4 893.69 786.12006 898.6 788.79004C 899.74786 789.5034 900.67554 790.52106 901.27997 791.73004C 903.50995 795.73004 904.67 802.38007 905.27997 807.73004C 905.48834 809.6669 904.7435 811.58435 903.2823 812.87256C 901.8211 814.1608 899.82544 814.65955 897.93 814.21zM767.06 819.38C 758.58 817.31 745.49 814.29 738.83 813.62C 728.48004 812.62 728.48004 799.62 735.72003 801.21C 740.46 802.21 744.54004 798.80005 746.79004 796.32C 747.07007 796.02 747.32007 795.73 747.53 795.46C 748.3902 794.4407 749.5654 793.73694 750.87006 793.46C 754.75006 792.61005 762.87006 791.33 767.79004 794.01C 769.25006 794.79004 770.41003 796.51 771.34 798.74C 773.01 802.74 773.93005 808.33997 774.44 812.97C 774.6268 814.90173 773.8676 816.8046 772.4023 818.07733C 770.937 819.35 768.9466 819.8353 767.06 819.37994z" stroke="none" fill="#BEBED0" fill-rule="nonzero" />
    <path d="M771.34 798.7C 758.99005 811.43 748.4 798.46 746.79004 796.32C 747.07007 796.02 747.32007 795.73 747.53 795.46C 748.3902 794.4407 749.5654 793.73694 750.87006 793.46C 754.75006 792.61005 762.87006 791.33 767.79004 794.01C 769.25006 794.75 770.46 796.47003 771.34 798.7zM901.33 791.73C 895.98004 795.38 877.97003 794.48 877.97003 794.48C 877.3766 793.85583 876.8316 793.18726 876.34 792.48C 877.0534 791.7941 877.7215 791.06256 878.34 790.29C 879.19507 789.2502 880.37494 788.5282 881.69 788.24C 885.57 787.39996 893.69 786.12 898.6 788.79C 899.7663 789.4962 900.7119 790.5146 901.32996 791.73z" stroke="none" fill="#000000" fill-rule="nonzero" fill-opacity="0.09803922" />
    <path d="M902.28 789.31C 898.65 793.97 877.97003 792.93 877.97003 792.93C 877.97003 792.93 871.76 786.72 869.17004 773.27997C 866.5801 759.83997 844.34 716.89996 844.34 716.89996C 839.17004 710.17 835.03 697.75995 835.03 697.75995L835.03 697.75995L826.24005 641.37994C 826.24005 641.37994 783.8301 697.2399 784.35004 709.13995C 784.87 721.04 775.03 768.13995 775.03 768.13995C 771.41003 774.35 771.41003 797.13995 771.41003 797.13995C 757.97003 811.13995 746.59 794.5499 746.59 794.5499C 744 783.68994 748.14 747.99994 748.14 747.99994C 748.14 747.99994 754.35004 717.99994 754.86 699.37994C 755.36993 680.75995 761.58997 676.1099 761.58997 676.1099C 766.42053 656.91736 774.64685 638.74426 785.87994 622.44995C 788.99994 617.98 791.06995 615.58997 791.06995 615.58997L791.06995 615.58997L874.8599 625.42C 873.2532 628.97546 872.04584 632.69824 871.25995 636.51996C 865.80994 659.92 863.99994 701.97 863.99994 701.97C 883.13995 714.37994 888.82996 747.97 888.82996 747.97C 888.82996 756.72 902.27997 789.31 902.27997 789.31L902.27997 789.31L902.28 789.31z" stroke="none" fill="#5C5C8E" fill-rule="nonzero" />
	<g>
        <path d="M821.63 648.27L820.55 641.38C 820.55 641.38 778.14 697.24 778.66 709.14C 779.17993 721.04004 769.35 768.14 769.35 768.14C 765.72 774.35004 765.72 797.14 765.72 797.14C 763.55426 799.58386 760.7541 801.38025 757.62994 802.33C 761.69995 803.4 766.62994 802.61005 771.92993 797.14C 771.92993 797.14 771.92993 774.38 775.5499 768.14C 775.5499 768.14 785.37994 721.07 784.8599 709.14C 784.4599 699.83 810.3499 663.57 821.62994 648.27L821.62994 648.27L821.63 648.27z" stroke="none" fill="#000000" fill-rule="nonzero" fill-opacity="0.047058824" />
        <path d="M889.34 747.93C 889.34 747.93 883.65 714.31 864.52 701.93C 864.52 701.93 866.33 659.88 871.77 636.48C 872.5587 632.6578 873.7695 628.935 875.38 625.38L875.38 625.38L791.59 615.57C 791.59 615.57 791.39 615.79 791.03 616.23L791.03 616.23L869.17004 625.39996C 867.5633 628.95544 866.35596 632.6782 865.57007 636.49994C 860.12006 659.89996 858.31006 701.94995 858.31006 701.94995C 877.4501 714.3599 883.1401 747.94995 883.1401 747.94995C 883.1401 756.7399 896.5901 789.32996 896.5901 789.32996C 894.4501 792.06995 886.3901 792.83997 880.1201 793.00995C 885.1201 793.13995 899.7901 793.18994 902.7901 789.32996C 902.7901 789.30994 889.3401 756.72 889.3401 747.92993L889.3401 747.92993L889.34 747.93z" stroke="none" fill="#000000" fill-rule="nonzero" fill-opacity="0.047058824" />
	</g>
    <path d="M775.55 608.28C 774.9237 609.80756 774.10004 611.2465 773.1 612.56006C 769.99 616.75006 763.51996 622.29004 751.68 620.7701C 749.9056 620.54266 748.3808 619.40045 747.66376 617.76154C 746.9468 616.1226 747.1427 614.2276 748.18 612.7701C 751.9811 607.2261 757.43787 603.0259 763.77 600.7701C 765.9124 600.06305 768.13135 599.61316 770.38 599.43005L770.38 599.43005L775.55 608.28z" stroke="none" fill="#AE6E79" fill-rule="nonzero" />
    <path d="M884.79 463.62L843.31 448.44998C 843.31 448.44998 831.41 454.65997 836.07 463.44998L836.07 463.44998L876.46 488.8L884.79 463.62z" stroke="none" fill="#42383C" fill-rule="nonzero" />
    <path d="M884.95 463.79L843.46 448.62C 843.46 448.62 831.56 454.82 836.22003 463.62L836.22003 463.62L876.56006 488.96L884.95 463.79z" stroke="none" fill="#000000" fill-rule="nonzero" fill-opacity="0.09803922" />
    <path d="M886.24 438.62C 886.24 438.62 885.72 462.93 896.58997 471.21C 907.45996 479.49 865.02997 484.13998 865.02997 484.13998C 865.02997 484.13998 871.75995 459.31 865.02997 446.37997C 858.3 433.44995 886.24 438.61996 886.24 438.61996L886.24 438.61996L886.24 438.62z" stroke="none" fill="#AE6E79" fill-rule="nonzero" />
    <path d="M874.86 625.35C 873.25323 628.9055 872.0459 632.62823 871.26 636.44995C 821.26 644.08997 786.41003 623.27997 786.41003 623.27997C 786.22003 622.98 786.04004 622.68 785.88 622.37994C 789 617.91 791.07 615.51996 791.07 615.51996L791.07 615.51996L874.86 625.35zM775.55 608.28C 774.9237 609.80756 774.10004 611.2465 773.1 612.56006C 768.31 611.7601 764.48 602.56006 763.76996 600.82007C 765.91235 600.113 768.1313 599.6631 770.37994 599.48004z" stroke="none" fill="#000000" fill-rule="nonzero" fill-opacity="0.09803922" />
    <path d="M890.38 460.35L871.76 467.07L864 477.42C 864 477.42 848 482.59003 845.9 482.59003C 843.80005 482.59003 838.14 484.66003 834.52 492.93002C 830.9 501.2 817.97003 541.57 806.59 548.28C 795.21 554.99005 765.21 600 765.21 600C 765.21 600 770.38 614 776.59 611.9L776.59 611.9L791.07 600C 791.07 600 779.69 611.38 786.41003 621.73C 786.41003 621.73 828.83 647.07 887.28 631.55L887.28 631.55L887.79004 616.04L890.38007 628.44995L919.38007 610.35C 919.38007 610.35 916.79004 576.95996 912.12006 559.97C 910.18567 552.82544 910.8958 545.22266 914.12006 538.56C 921.63007 522.91 933.22003 496.77 931.81006 487.24C 930.1401 476.00998 923.81006 471.13 921.37006 469.66C 920.81683 469.32278 920.1948 469.1143 919.55005 469.05002L919.55005 469.05002L910.0801 468.11002L890.38 460.35z" stroke="none" fill="#42383C" fill-rule="nonzero" />
    <path d="M858.57 512.33C 858.57 512.33 848.22003 560.43 836.84 568.19C 825.46 575.95 794.95 600.78 793.91003 604.92" stroke="none" fill="#000000" fill-rule="nonzero" fill-opacity="0.047058824" />
    <path d="M853.91 510.78C 853.91 510.78 843.56995 558.88 832.19 566.64C 820.81006 574.4 790.29 599.23004 789.26 603.36" stroke="none" fill="#42383C" fill-rule="nonzero" />
    <path d="M863.74 477.16C 863.74 477.16 899.43 465.26 909.74 468.36002" stroke="none" fill="#000000" fill-rule="nonzero" fill-opacity="0.09803922" />
	<g>
        <path d="M914.07 538.57C 921.58 522.92 933.17 496.78 931.76 487.25C 930.09 476.02 923.76 471.14 921.32 469.67C 920.7668 469.3328 920.1448 469.1243 919.5 469.06003L919.5 469.06003L915.5 468.66003C 915.92395 468.75705 916.3293 468.92255 916.7 469.15002C 919.12 470.63004 925.47003 475.50003 927.13 486.74002C 928.54 496.26 916.95 522.41003 909.45 538.06C 906.2265 544.7193 905.51624 552.3187 907.45 559.46C 912.13 576.46 914.72003 609.84 914.72003 609.84L914.72003 609.84L889.78 625.43005L890.41003 628.43005L919.41003 610.3301C 919.41003 610.3301 916.82 576.94006 912.15 559.9501C 910.1982 552.8244 910.8798 545.234 914.07 538.57007L914.07 538.57007L914.07 538.57zM905.38 467.59L909.86 468.04L890.38 460.35L888.63 460.98L905.38 467.59z" stroke="none" fill="#000000" fill-rule="nonzero" fill-opacity="0.047058824" />
	</g>
    <path d="M853.91 560.95C 853.91 560.95 869.91 552.16003 875.12 554.23004C 880.33 556.30005 899.43 553.71 899.43 553.71L899.43 553.71L853.91 560.95zM884.46 445.09C 883.87 439.9 886.27 440.69 886.27 440.69C 886.27 440.69 858.34 435.52 865.06 448.45C 866.75446 452.01303 867.72003 455.8787 867.9 459.82L867.9 459.82L868.17004 459.82C 875.93005 459.83002 880.46 451.15 884.46 445.09z" stroke="none" fill="#000000" fill-rule="nonzero" fill-opacity="0.047058824" />
    <path d="M890.38 435.52C 890.38 441.6614 888.20874 446.9034 883.8661 451.24603C 879.52344 455.58868 874.28143 457.76 868.14 457.75998C 861.99866 457.76 856.75665 455.58868 852.41394 451.24603C 848.07135 446.9034 845.9 441.6614 845.9 435.52C 845.9 429.3786 848.07135 424.1366 852.41394 419.79395C 856.75665 415.45135 861.99866 413.28003 868.14 413.28C 874.28143 413.28003 879.52344 415.45135 883.8661 419.79395C 888.20874 424.1366 890.38 429.3786 890.38 435.52C 890.38 435.7788 890.3755 436.03754 890.36646 436.29614" stroke="none" fill="#AE6E79" fill-rule="nonzero" />
    <path d="M892.46 442.1C 894.46 437.67 895.95 432.87 895.71 428.01C 895.47003 423.15002 893.29004 418.22 889.25 415.5C 887.17 414.1 884.71 413.35 882.54 412.07C 880.85 411.07 879.36 409.76 877.75 408.64C 869.73175 403.175 859.40405 402.41223 850.67 406.64C 846.58997 408.64 843.11 411.75 839.26 414.2C 835.41003 416.65002 830.87 418.53 826.36 417.81C 825.57996 419.96 827.49 422.08 829.24 423.56C 832.57 426.35 836.33997 429.13 840.68 429.22C 842.36 429.22 844.13 428.9 845.68 429.6C 846.7069 430.16702 847.57904 430.9774 848.22 431.96C 850.3083 434.73706 852.0793 437.73907 853.5 440.91C 853.9347 442.27332 854.7542 443.48184 855.86 444.39C 857.86 445.67 860.45 444.6 862.86 444.51C 866.54 444.36002 869.86 446.68002 872.57996 449.16C 875.2999 451.63998 877.89996 454.48 881.33997 455.79C 883.91 456.79 889.05 456.73 890.33997 453.66C 890.82996 452.5 889.87994 450.02 890.07996 448.6C 890.5614 446.33154 891.3628 444.143 892.45996 442.1L892.45996 442.1L892.46 442.1z" stroke="none" fill="#000000" fill-rule="nonzero" fill-opacity="0.09803922" />
    <path d="M892.92 441.57C 894.92 437.14 896.42 432.34 896.17 427.49002C 895.92 422.64005 893.76 417.69003 889.72 414.98C 887.62994 413.57 885.17 412.82 883.00995 411.54C 881.31995 410.54 879.82996 409.24002 878.22 408.11002C 870.2017 402.645 859.874 401.88223 851.13995 406.11002C 847.05994 408.11002 843.57996 411.21002 839.73 413.66C 835.88 416.11 831.33997 418 826.82996 417.27C 826.0499 419.43 827.94995 421.55 829.70996 423.02C 833.04 425.81 836.80994 428.59 841.14996 428.69C 842.82996 428.69 844.6 428.36002 846.14996 429.07C 847.1811 429.63123 848.05457 430.44278 848.68994 431.43C 850.77826 434.20166 852.54614 437.20074 853.95996 440.37C 854.3984 441.73398 855.2214 442.94238 856.32996 443.85C 858.32996 445.13 860.92 444.06 863.32996 443.97C 867.00995 443.83 870.32996 446.15 873.04 448.63C 875.75 451.11002 878.36 453.94 881.81 455.25C 884.38 456.25 889.52 456.19 890.81 453.12C 891.31 451.96 890.36 449.47998 890.56 448.06C 891.03577 445.79596 891.8303 443.61084 892.92 441.57z" stroke="none" fill="#42383C" fill-rule="nonzero" />
    <path d="M731.92 770C 730.0551 771.5305 727.7125 772.3586 725.3 772.34L725.3 772.34L278.53 770.44C 276.10654 767.52277 274.9956 763.7341 275.46 759.97003L275.46 759.97003L319.6 398.8L347.28 398.5C 352.04068 398.45212 356.2331 401.6252 357.48 406.22L357.48 406.22L362.65002 425.3C 363.90967 429.946 368.17755 433.13248 372.99002 433.02L372.99002 433.02L483.46002 430.37C 489.13904 430.23422 493.6716 425.59067 493.67 419.91L493.67 419.91L493.67 407.27C 493.66968 401.5396 498.28006 396.87573 504.01 396.81L504.01 396.81L657.09 395.16C 662.14386 395.1131 666.50836 398.68637 667.46 403.65L667.46 403.65L735.16003 757.65L735.60004 759.93005C 736.33136 763.7091 734.91565 767.58307 731.92004 770.00006L731.92004 770.00006L731.92 770z" stroke="none" fill="#000000" fill-rule="nonzero" fill-opacity="0.09803922" />
    <path d="M652.09 400.17L499.01 401.82C 493.28003 401.88025 488.6652 406.53967 488.66 412.27002L488.66 412.27002L488.66 424.92C 488.65634 430.59302 484.13123 435.22903 478.46 435.37003L478.46 435.37003L368 438.02C 363.1827 438.1408 358.90738 434.95187 357.65 430.3L357.65 430.3L352.46 411.22998C 351.21524 406.62952 347.01556 403.454 342.25 403.50998L342.25 403.50998L194.7 405.1C 191.64047 405.12997 188.74776 406.4993 186.78522 408.84665C 184.82268 411.19403 183.98747 414.28357 184.5 417.30002L184.5 417.30002L243.86 766.66003C 244.71077 771.6739 249.04448 775.3493 254.13 775.37006L254.13 775.37006L720.27 777.37006C 723.3937 777.38055 726.3586 775.99457 728.3537 773.5911C 730.3488 771.1877 731.1654 768.0184 730.58 764.9501L730.58 764.9501L662.46 408.66006C 661.5121 403.69424 657.14526 400.1191 652.09 400.17007L652.09 400.17007L652.09 400.17z" stroke="none" fill="#E6E8EE" fill-rule="nonzero" />
    <path d="M867.68 160.93L866.88 169.82999L867.46 185.56999L865.77 212.12C 865.77 212.12 865.53 223.75 858.96 229.2L858.96 229.2L842.19 254.95L842.09 255L835.78 258.08L826.15 259.08L821.15 246.96999L824.46 233.66998L826.30005 231.18999L826.81006 230.62999C 828.81006 228.43 836.53 220.43999 842.66003 217.94998C 842.66003 217.94998 846.75006 214.94998 846.03 210.24998C 845.31 205.54999 851.55005 180.56998 851.55005 180.56998C 851.55005 180.56998 855.55005 164.04997 854.68005 162.43997C 853.81006 160.82997 854.5201 124.25997 868.32007 123.69997C 882.12006 123.13996 867.68005 160.92996 867.68005 160.92996L867.68005 160.92996L867.68 160.93z" stroke="none" fill="#F6BAC2" fill-rule="nonzero" />
    <path d="M135.22 700.88C 135.22 699.64844 142.47746 698.65 151.43 698.65C 160.38252 698.65 167.63998 699.64844 167.63998 700.88C 167.63998 702.1116 160.38252 703.11 151.43 703.11C 142.47746 703.11 135.22 702.1116 135.22 700.88" stroke="none" fill="#BBB8FA" fill-rule="nonzero" fill-opacity="0.09803922" />
    <path d="M73.13 707.17C 73.13 705.9384 80.38746 704.94 89.34 704.94C 98.292534 704.94 105.549995 705.9384 105.549995 707.17C 105.549995 708.40155 98.292534 709.39996 89.34 709.39996C 80.38746 709.39996 73.13 708.40155 73.13 707.17" stroke="none" fill="#BBB8FA" fill-rule="nonzero" fill-opacity="0.09803922" />
    <path d="M0 698.65C 0 697.41846 7.2574635 696.42004 16.21 696.42004C 25.162535 696.42004 32.42 697.41846 32.42 698.65C 32.42 699.8816 25.162535 700.88 16.21 700.88C 7.2574635 700.88 0 699.8816 0 698.65" stroke="none" fill="#BBB8FA" fill-rule="nonzero" fill-opacity="0.09803922" />
    <path d="M102.67 725.1C 102.67 724.22736 107.82768 723.51996 114.19 723.51996C 120.55232 723.51996 125.71001 724.22736 125.71001 725.1C 125.71001 725.9726 120.55232 726.68 114.19 726.68C 107.82768 726.68 102.67 725.9726 102.67 725.1" stroke="none" fill="#BBB8FA" fill-rule="nonzero" fill-opacity="0.09803922" />
    <path d="M38.23 723.52C 38.23 722.6474 43.38768 721.94 49.75 721.94C 56.11232 721.94 61.27 722.6474 61.27 723.52C 61.27 724.39264 56.11232 725.10004 49.75 725.10004C 43.38768 725.10004 38.23 724.39264 38.23 723.52" stroke="none" fill="#BBB8FA" fill-rule="nonzero" fill-opacity="0.09803922" />
    <path d="M88.99 706.68C 88.99 706.68 111.72 632.16 85.43 602.31C 65.76 579.98 43.43 582.65 33.43 585.41C 28.19693 586.8079 23.839993 590.4302 21.51 595.31995C 18.01 602.8599 18.64 615.1 43.32 629.38995C 84.630005 653.30994 87.2 686.11993 87.2 686.11993L87.2 686.11993L88.99 706.68z" stroke="none" fill="#BBB8FA" fill-rule="nonzero" />
    <path d="M37 595.98C 37 595.98 104 616.98 89 706.68M76.14 603.49C 76.14 603.49 66.91 609.70996 69.85 619.06M43.72 609.03C 43.72 609.03 49.36 603.29004 56.230003 606.46M70.21 637.89C 70.21 637.89 80.119995 632.89 82.68 639.16003M94.72 648.36C 94.72 648.36 87.28 647.76996 87.15 651.36" stroke="#565987" stroke-width="1" fill="none" />
    <path d="M89.91 707.27C 89.91 707.27 63.280006 653.11005 55.970005 654.27C 52.500004 654.84 50.900005 658.27 50.170006 661.69C 49.272446 666.1273 49.77925 670.734 51.620007 674.87C 55.400005 683.57 65.55 700.02 89.91 707.27z" stroke="none" fill="#BBB8FA" fill-rule="nonzero" />
    <path d="M56.17 664.57C 56.17 664.57 84.11 705.09 89.509995 706.87M53.6 670.9L60.12 670.9zM61.41 685.72L71.64 686.16zM67.64 673.86L66.53 679.19zM78.51 690.07L78.310005 694.91003" stroke="#565987" stroke-width="1" fill="none" />
    <path d="M89.12 707.27C 89.12 707.27 115.740005 653.11005 123.05 654.27C 126.53001 654.84 128.13 658.27 128.85 661.69C 129.74756 666.1273 129.24075 670.73395 127.40001 674.87C 123.62001 683.57 113.46001 700.02 89.12001 707.27L89.12001 707.27L89.12 707.27z" stroke="none" fill="#BBB8FA" fill-rule="nonzero" />
    <path d="M122.86 664.57C 122.86 664.57 94.86 705.09 89.51 706.87M125.43 670.9L118.91 670.9zM117.62 685.72L107.39 686.16zM111.39 673.86L112.5 679.19zM100.52 690.07L100.71999 694.91003" stroke="#565987" stroke-width="1" fill="none" />
    <path d="M43.4 719.92C 42.6755 719.32806 42.148743 718.5292 41.890003 717.63C 41.63495 716.6993 42.080822 715.71924 42.950005 715.3C 43.950005 714.93 44.950005 715.6 45.750004 716.3C 46.550003 717 47.460003 717.74 48.460003 717.57C 47.380424 716.5919 46.894325 715.11847 47.180004 713.69C 47.221004 713.3993 47.3422 713.12573 47.530003 712.9C 48.070004 712.32 49.050003 712.57 49.700005 713.03C 51.700005 714.47003 52.330006 717.26 52.340004 719.78C 52.440144 718.8561 52.440144 717.92395 52.340004 717C 52.286274 716.0542 52.706013 715.14355 53.460003 714.57C 53.946808 714.30426 54.49565 714.1731 55.050003 714.19C 55.97929 714.057 56.92122 714.3262 57.640003 714.93C 58.34038 715.8837 58.2991 717.1923 57.540005 718.1C 56.773857 718.9595 55.867718 719.68304 54.860004 720.24C 54.095127 720.7004 53.442604 721.32556 52.950005 722.07C 52.889576 722.1701 52.84251 722.2777 52.810005 722.39L52.810005 722.39L46.990005 722.39C 45.687195 721.7328 44.47951 720.90186 43.400005 719.92004L43.400005 719.92004L43.4 719.92zM144.85 698.1C 144.12381 697.5137 143.59644 696.71735 143.34001 695.81995C 143.08344 694.8918 143.52472 693.91254 144.39001 693.4899C 145.39001 693.11993 146.39001 693.7899 147.19002 694.4899C 147.99002 695.18994 148.89001 695.94995 149.92001 695.7999C 148.84021 694.826 148.35054 693.35693 148.63002 691.92993C 148.67442 691.63824 148.79907 691.36475 148.99002 691.13995C 149.53001 690.55994 150.51003 690.80994 151.16002 691.25995C 153.21002 692.70996 153.79002 695.49994 153.80002 698.01996C 153.9001 697.0927 153.9001 696.1573 153.80002 695.23C 153.7094 694.2956 154.08313 693.37616 154.80002 692.76996C 155.28896 692.5108 155.8369 692.3833 156.39001 692.39996C 157.3175 692.26935 158.25722 692.53424 158.98001 693.12994C 159.68285 694.08795 159.63736 695.40283 158.87001 696.30994C 158.10956 697.1714 157.20634 697.89526 156.20001 698.44995C 155.43497 698.9058 154.7822 699.52783 154.29001 700.26996C 154.23141 700.3745 154.18446 700.48517 154.15001 700.6L154.15001 700.6L148.46 700.6C 147.14749 699.93646 145.93272 699.0952 144.85 698.1zM111.04 719.92C 110.31601 719.32556 109.786606 718.528 109.520004 717.63C 109.264946 716.6993 109.71082 715.71924 110.58 715.3C 111.58 714.93 112.58 715.6 113.380005 716.3C 114.18001 717 115.07001 717.76 116.11001 717.62C 115.03193 716.6407 114.542915 715.16986 114.82001 713.74C 114.8644 713.4483 114.989044 713.1748 115.18001 712.95C 115.72001 712.37 116.700005 712.62 117.350006 713.08C 119.40001 714.52 119.97001 717.31 119.990005 719.83C 120.09007 718.90607 120.09007 717.97394 119.990005 717.05C 119.91138 716.10675 120.304504 715.18567 121.04001 714.58997C 121.52628 714.3229 122.0755 714.1916 122.630005 714.20996C 123.5592 714.0783 124.50061 714.3473 125.22 714.94995C 125.92122 715.9047 125.87572 717.21594 125.11 718.11993C 124.34752 718.9792 123.444695 719.7028 122.44 720.25995C 121.675125 720.7203 121.0226 721.34546 120.53 722.08997C 120.469574 722.1901 120.42251 722.2977 120.39 722.41L120.39 722.41L114.59 722.41C 113.30111 721.74164 112.10723 720.90424 111.03999 719.92zM15.15 675.82C 15.15 675.82 12.98 678.66003 16.15 682.95C 19.32 687.24 21.939999 690.86 20.88 693.53C 20.88 693.53 16.09 685.53 12.19 685.46C 8.289999 685.39 10.86 680.57 15.15 675.82z" stroke="none" fill="#BBB8FA" fill-rule="nonzero" />
    <path d="M15.15 675.82C 14.9627075 676.0948 14.814617 676.39435 14.71 676.71C 10.91 681.18 8.88 685.35004 12.54 685.46C 15.940001 685.56 20.029999 691.64 21 693.18C 20.969337 693.29846 20.932621 693.4153 20.89 693.52997C 20.89 693.52997 16.099998 685.52997 12.2 685.45996C 8.300001 685.38995 10.86 680.56995 15.15 675.81995L15.15 675.81995L15.15 675.82z" stroke="none" fill="#000000" fill-rule="nonzero" fill-opacity="0.09803922" />
    <path d="M11.12 679.44C 11.12 680.44 11.23 681.25 11.37 681.25C 11.51 681.25 11.62 680.44 11.62 679.44C 11.62 678.44 11.48 678.91 11.34 678.91C 11.200001 678.91 11.12 678.44 11.12 679.44z" stroke="none" fill="#FFD037" fill-rule="nonzero" />
    <path d="M9.73 680.64C 10.61 681.12 11.37 681.4 11.44 681.28C 11.509999 681.16003 10.849999 680.68005 9.969999 680.2C 9.089999 679.72 9.44 680.07 9.369999 680.2C 9.299998 680.33 8.849998 680.16003 9.729999 680.64L9.729999 680.64L9.73 680.64z" stroke="none" fill="#FFD037" fill-rule="nonzero" />
    <path d="M26.62 675.82C 26.62 675.82 28.800001 678.66003 25.62 682.95C 22.44 687.24 19.830002 690.86 20.890001 693.53C 20.890001 693.53 25.68 685.53 29.580002 685.46C 33.480003 685.39 30.910002 680.57 26.620003 675.82L26.620003 675.82L26.62 675.82z" stroke="none" fill="#BBB8FA" fill-rule="nonzero" />
    <path d="M26.62 675.82C 26.80855 676.0956 26.95986 676.39484 27.070002 676.71C 30.87 681.18 32.9 685.35004 29.240002 685.46C 25.840002 685.56 21.750002 691.64 20.77 693.18C 20.799423 693.3 20.839584 693.4171 20.890001 693.52997C 20.890001 693.52997 25.68 685.52997 29.580002 685.45996C 33.480003 685.38995 30.910002 680.56995 26.620003 675.81995L26.620003 675.81995L26.62 675.82z" stroke="none" fill="#000000" fill-rule="nonzero" fill-opacity="0.09803922" />
    <path d="M30.66 679.44C 30.66 680.44 30.55 681.25 30.41 681.25C 30.27 681.25 30.16 680.44 30.16 679.44C 30.16 678.44 30.3 678.91 30.44 678.91C 30.580002 678.91 30.66 678.44 30.66 679.44z" stroke="none" fill="#FFD037" fill-rule="nonzero" />
    <path d="M32.05 680.64C 31.17 681.12 30.4 681.4 30.34 681.28C 30.28 681.16003 30.93 680.68005 31.81 680.2C 32.69 679.72 32.34 680.07 32.399998 680.2C 32.459995 680.33 32.92 680.16003 32.05 680.64z" stroke="none" fill="#FFD037" fill-rule="nonzero" />
    <path d="M29.97 693.16C 29.97 693.16 23.9 692.97 22.07 691.67C 20.24 690.37 12.73 688.81 12.2699995 690.89996C 11.809999 692.9899 3.1499996 701.3 10 701.35C 16.85 701.39996 25.93 700.27997 27.76 699.17C 29.59 698.06 29.970001 693.16 29.970001 693.16L29.970001 693.16L29.97 693.16z" stroke="none" fill="#A8A8A8" fill-rule="nonzero" />
    <path d="M9.88 700.62C 16.74 700.68 25.810001 699.56 27.64 698.44C 29.029999 697.6 29.58 694.56 29.77 693.15L29.77 693.15L29.970001 693.15C 29.970001 693.15 29.590002 698.05005 27.760002 699.15C 25.930002 700.25 16.860003 701.39 10.000002 701.33C 8.000002 701.33 7.340002 700.61005 7.380002 699.57C 7.650002 700.22003 8.460002 700.57 9.880002 700.62L9.880002 700.62L9.88 700.62z" stroke="none" fill="#000000" fill-rule="nonzero" fill-opacity="0.2" />
    <path d="M55.57 126.71C 55.570004 132.68295 53.458244 137.78119 49.23472 142.00471C 45.0112 146.22824 39.912956 148.34 33.94 148.34C 27.967041 148.34 22.868801 146.22824 18.645279 142.00471C 14.421761 137.78119 12.31 132.68295 12.309999 126.71C 12.31 120.737045 14.421761 115.6388 18.645279 111.41528C 22.868801 107.191765 27.967041 105.08 33.94 105.08C 39.912956 105.08 45.0112 107.191765 49.23472 111.41528C 53.458244 115.6388 55.570004 120.737045 55.57 126.71C 55.570004 126.9617 55.565613 127.21333 55.556824 127.464874" stroke="none" fill="#BBB8FA" fill-rule="nonzero" fill-opacity="0.09803922" />
    <path d="M1095.66 299.56C 1095.6602 305.53296 1093.5483 310.6312 1089.3247 314.8547C 1085.1013 319.07825 1080.003 321.19 1074.03 321.19C 1068.0571 321.19 1062.9589 319.07825 1058.7354 314.8547C 1054.5118 310.6312 1052.4 305.53296 1052.4 299.56C 1052.4 293.58704 1054.5118 288.4888 1058.7354 284.2653C 1062.9589 280.04175 1068.0571 277.93 1074.03 277.93C 1080.003 277.93 1085.1013 280.04175 1089.3247 284.2653C 1093.5483 288.4888 1095.6602 293.58704 1095.66 299.56C 1095.6602 299.8117 1095.6558 300.06335 1095.6469 300.31488" stroke="none" fill="#BBB8FA" fill-rule="nonzero" fill-opacity="0.09803922" />
    <path d="M706.84 58.02C 706.84 63.99296 704.7283 69.0912 700.50476 73.31472C 696.28125 77.53824 691.183 79.65 685.21 79.65C 679.23706 79.65 674.13885 77.53824 669.9153 73.31472C 665.6918 69.0912 663.58 63.99296 663.58 58.02C 663.58 52.047043 665.6918 46.948803 669.9153 42.72528C 674.13885 38.501762 679.23706 36.39 685.21 36.39C 691.183 36.39 696.28125 38.501762 700.50476 42.72528C 704.7283 46.948803 706.84 52.047043 706.84 58.02C 706.84 58.2717 706.83563 58.523327 706.82684 58.774876" stroke="none" fill="#BBB8FA" fill-rule="nonzero" fill-opacity="0.09803922" />
    <path d="M113.45 246.04C 113.45 256.05017 109.91087 264.59436 102.83262 271.6726C 95.75437 278.75085 87.21016 282.28998 77.2 282.28998C 67.189835 282.28998 58.64563 278.75085 51.567375 271.6726C 44.489124 264.59436 40.949997 256.05017 40.949997 246.04C 40.949997 236.02985 44.489124 227.48564 51.567375 220.40738C 58.64563 213.32913 67.189835 209.79001 77.2 209.79C 87.21016 209.79001 95.75437 213.32913 102.83262 220.40738C 109.91087 227.48564 113.45 236.02985 113.45 246.04C 113.45 246.46184 113.44264 246.88354 113.42792 247.3051" stroke="none" fill="#BBB8FA" fill-rule="nonzero" fill-opacity="0.09803922" />
    <path d="M430.2 588.64L428.92 587.36C 428.6434 587.10095 428.48645 586.73895 428.48645 586.36C 428.48645 585.981 428.6434 585.619 428.92 585.36L428.92 585.36L440.15002 574.12C 440.40906 573.8434 440.7711 573.6864 441.15002 573.6864C 441.52896 573.6864 441.891 573.8434 442.15002 574.12L442.15002 574.12L453.38004 585.35C 453.65134 585.61194 453.8046 585.97284 453.8046 586.35C 453.8046 586.7271 453.65134 587.088 453.38004 587.35L453.38004 587.35L452.10004 588.63C 451.8381 588.9013 451.47717 589.05457 451.10004 589.05457C 450.7229 589.05457 450.36197 588.9013 450.10004 588.63L450.10004 588.63L443.46002 581.63L443.46002 598.24C 443.46268 598.6077 443.31845 598.9613 443.0594 599.2223C 442.8003 599.4832 442.44775 599.63 442.08002 599.63L442.08002 599.63L440.23 599.63C 439.86136 599.63 439.5078 599.4835 439.24713 599.22284C 438.98645 598.9622 438.84 598.60864 438.84 598.24L438.84 598.24L438.84 581.64996L432.19998 588.64996C 431.93668 588.9199 431.57498 589.07135 431.19785 589.06946C 430.8207 589.0676 430.46054 588.91254 430.19998 588.63995L430.19998 588.63995L430.2 588.64z" stroke="none" fill="#F6F7F9" fill-rule="nonzero" />
    <path d="M441.13 563.91C 450.3477 563.91 458.65775 569.4626 462.18518 577.97864C 465.71265 586.4946 463.76282 596.29706 457.24493 602.81494C 450.72702 609.3328 440.92462 611.28265 432.4086 607.7551C 423.89255 604.22766 418.33997 595.9176 418.34 586.69995C 418.351 574.1179 428.54797 563.92096 441.13 563.91zM441.13 560.91C 430.69894 560.91 421.29498 567.1935 417.30316 576.83057C 413.31137 586.46765 415.51788 597.56036 422.89377 604.9362C 430.26965 612.31213 441.3624 614.5186 450.99945 610.5268C 460.63654 606.535 466.92004 597.131 466.92 586.69995C 466.92 572.4565 455.37344 560.91 441.13 560.91z" stroke="none" fill="#F6F7F9" fill-rule="nonzero" />
</g>
</svg>